<svg width="60" height="60" viewBox="0 0 63 63" fill="none" xmlns="http://www.w3.org/2000/svg">
<path d="M27.8329 52.687C27.8329 52.3285 27.754 51.9743 27.6018 51.6497C27.4496 51.325 27.2279 51.0378 26.9524 50.8084C26.6768 50.579 26.3542 50.413 26.0074 50.3222C25.6605 50.2314 25.2979 50.2179 24.9453 50.2828C21.7449 50.8702 17.7042 50.9585 16.6298 47.9408C15.693 45.6036 14.1412 43.5635 12.139 42.0367C11.9962 41.959 11.86 41.8695 11.732 41.7693C11.5567 41.307 11.2455 40.9088 10.8393 40.6271C10.4331 40.3453 9.95105 40.1933 9.45672 40.1912H9.44479C8.79839 40.1909 8.17823 40.4468 7.72004 40.9027C7.26185 41.3587 7.00296 41.9776 7.00003 42.624C6.99048 44.6175 8.98273 45.8948 9.79096 46.3269C10.744 47.2845 11.51 48.4116 12.0495 49.6503C12.94 52.1523 15.528 55.9484 22.9673 55.459C22.9698 55.5449 22.9721 55.6261 22.9733 55.7001L22.984 56.3543C22.984 57.0027 23.2416 57.6245 23.7001 58.083C24.1585 58.5415 24.7804 58.799 25.4288 58.799C26.0772 58.799 26.699 58.5415 27.1575 58.083C27.6159 57.6245 27.8735 57.0027 27.8735 56.3543L27.8616 55.576C27.8497 55.1127 27.8329 54.4418 27.8329 52.687ZM53.9111 15.7077C53.9887 15.4021 54.0651 15.0631 54.132 14.6811C54.5274 11.9566 54.1826 9.17597 53.134 6.63052C53.0017 6.29868 52.7984 5.99979 52.5383 5.75482C52.2783 5.50984 51.9678 5.32471 51.6287 5.21239C50.7584 4.91873 47.545 4.34096 41.3997 8.26833C36.2915 7.06624 30.9739 7.06624 25.8657 8.26833C19.7455 4.39849 16.5486 4.92362 15.6868 5.20056C15.3393 5.30833 15.0203 5.49248 14.7532 5.73953C14.4862 5.98657 14.2778 6.29025 14.1433 6.6283C13.0732 9.22262 12.7323 12.06 13.1573 14.834C13.217 15.1467 13.2814 15.4356 13.3483 15.7006C11.323 18.3982 10.2442 21.6887 10.2792 25.0618C10.2726 25.8144 10.3073 26.5668 10.3831 27.3155C11.1996 38.5676 18.5339 41.9459 23.6441 43.1062C23.5379 43.4118 23.4412 43.7388 23.3553 44.085C23.2021 44.7141 23.3046 45.3782 23.6403 45.9317C23.9761 46.4853 24.5176 46.8831 25.1462 47.038C25.7748 47.1928 26.4392 47.0921 26.9937 46.7578C27.5481 46.4236 27.9474 45.8831 28.1039 45.2549C28.2595 44.4403 28.6582 43.692 29.2475 43.1086C29.6039 42.7966 29.8619 42.3878 29.9901 41.9319C30.1184 41.476 30.1114 40.9926 29.97 40.5406C29.8286 40.0886 29.5589 39.6874 29.1937 39.3859C28.8285 39.0844 28.3835 38.8955 27.9129 38.8422C19.4685 37.8777 15.8026 34.4373 15.2511 26.8667C15.19 26.2671 15.1625 25.6645 15.1687 25.0618C15.1295 22.6578 15.9237 20.3143 17.4165 18.4295C17.5665 18.233 17.7262 18.0441 17.8952 17.8636C18.1945 17.5287 18.3957 17.1178 18.4768 16.676C18.5579 16.2342 18.5157 15.7786 18.3548 15.3592C18.1898 14.918 18.0629 14.4635 17.9752 14.0007C17.776 12.6848 17.8413 11.3423 18.1673 10.0519C20.2922 10.652 22.2919 11.6288 24.0714 12.9359C24.3657 13.1319 24.6987 13.2623 25.0478 13.3184C25.3969 13.3744 25.754 13.3547 26.0948 13.2606C31.0359 11.9197 36.2452 11.9205 41.1859 13.2631C41.5285 13.357 41.8875 13.3756 42.2381 13.3175C42.5886 13.2594 42.9224 13.126 43.2164 12.9264C44.9876 11.6139 46.9789 10.6284 49.0967 10.0161C49.4213 11.2756 49.4939 12.5867 49.3104 13.8742C49.2218 14.3816 49.0835 14.879 48.8973 15.3593C48.7364 15.7786 48.6942 16.2342 48.7753 16.676C48.8564 17.1178 49.0576 17.5288 49.3569 17.8637C49.5456 18.0762 49.7342 18.3054 49.9037 18.5202C51.3859 20.3732 52.1667 22.6897 52.1086 25.0618C52.113 25.6965 52.0823 26.3309 52.0166 26.9622C51.4783 34.4325 47.798 37.8753 39.3142 38.8422C38.8435 38.8958 38.3985 39.085 38.0333 39.3868C37.6681 39.6887 37.3985 40.0901 37.2573 40.5423C37.116 40.9945 37.1092 41.478 37.2377 41.934C37.3661 42.3901 37.6243 42.7989 37.9808 43.1109C38.5887 43.71 38.9882 44.4882 39.1208 45.3313C39.286 45.9857 39.3619 46.6595 39.3464 47.3343V53.0404C39.3225 54.6232 39.3225 55.8098 39.3225 56.3541C39.3225 57.0025 39.5801 57.6243 40.0386 58.0828C40.497 58.5413 41.1189 58.7989 41.7673 58.7989C42.4157 58.7989 43.0375 58.5413 43.496 58.0828C43.9544 57.6243 44.212 57.0025 44.212 56.3541C44.212 55.8241 44.212 54.6614 44.2359 53.0786V47.3343C44.2556 46.2533 44.1283 45.1747 43.8575 44.128C43.7801 43.7844 43.6852 43.4449 43.5734 43.111C47.2925 42.4931 50.6716 40.5756 53.1094 37.6998C55.5472 34.8239 56.8854 31.1763 56.8858 27.4063C56.9664 26.6275 57.0038 25.8448 56.9981 25.0618C57.0523 21.685 55.9646 18.3889 53.9111 15.7077Z" fill="currentColor"/>
</svg>
