<svg className='opacity-90' width="20" height="20" viewBox="0 0 50 54" fill="none" xmlns="http://www.w3.org/2000/svg">
    <path d="M20.8329 47.687C20.8329 47.3285 20.754 46.9743 20.6018 46.6497C20.4496 46.325 20.2279 46.0378 19.9524 45.8084C19.6768 45.579 19.3542 45.413 19.0074 45.3222C18.6605 45.2313 18.2979 45.2179 17.9453 45.2828C14.7449 45.8702 10.7042 45.9585 9.62981 42.9408C8.693 40.6036 7.14123 38.5635 5.13902 37.0367C4.99617 36.959 4.86002 36.8695 4.73197 36.7693C4.55674 36.307 4.2455 35.9088 3.8393 35.6271C3.43311 35.3453 2.95105 35.1933 2.45672 35.1912H2.44479C1.79839 35.1909 1.17823 35.4468 0.720042 35.9027C0.261854 36.3587 0.00296343 36.9776 3.42778e-05 37.624C-0.0095247 39.6175 1.98273 40.8948 2.79096 41.3269C3.74403 42.2845 4.50999 43.4116 5.0495 44.6503C5.94002 47.1523 8.52801 50.9484 15.9673 50.459C15.9698 50.5449 15.9721 50.6261 15.9733 50.7001L15.984 51.3543C15.984 52.0027 16.2416 52.6245 16.7001 53.083C17.1585 53.5415 17.7804 53.799 18.4288 53.799C19.0772 53.799 19.699 53.5415 20.1575 53.083C20.6159 52.6245 20.8735 52.0027 20.8735 51.3543L20.8616 50.576C20.8497 50.1127 20.8329 49.4418 20.8329 47.687ZM46.9111 10.7077C46.9887 10.4021 47.0651 10.0631 47.132 9.68109C47.5273 6.95663 47.1826 4.17597 46.134 1.63052C46.0017 1.29868 45.7984 0.999794 45.5383 0.754819C45.2783 0.509845 44.9678 0.32471 44.6287 0.212395C43.7584 -0.0812687 40.545 -0.659037 34.3997 3.26833C29.2915 2.06624 23.9739 2.06624 18.8657 3.26833C12.7455 -0.601512 9.54865 -0.0763792 8.68677 0.200562C8.33929 0.308328 8.02032 0.492482 7.75324 0.739527C7.48617 0.986572 7.27775 1.29025 7.14328 1.6283C6.07322 4.22262 5.73227 7.05999 6.15726 9.83396C6.21696 10.1467 6.28141 10.4356 6.34827 10.7006C4.32297 13.3982 3.2442 16.6887 3.2792 20.0618C3.2726 20.8144 3.30727 21.5668 3.38306 22.3155C4.1996 33.5676 11.5339 36.9459 16.6441 38.1062C16.5379 38.4118 16.4412 38.7388 16.3553 39.085C16.2021 39.7141 16.3046 40.3782 16.6403 40.9317C16.9761 41.4853 17.5176 41.8831 18.1462 42.038C18.7748 42.1928 19.4392 42.0921 19.9937 41.7578C20.5481 41.4236 20.9474 40.8831 21.1039 40.2549C21.2595 39.4403 21.6582 38.692 22.2475 38.1086C22.6039 37.7966 22.8619 37.3878 22.9901 36.9319C23.1184 36.476 23.1114 35.9926 22.97 35.5406C22.8286 35.0886 22.5589 34.6874 22.1937 34.3859C21.8285 34.0844 21.3835 33.8955 20.9129 33.8422C12.4685 32.8777 8.80256 29.4373 8.25107 21.8667C8.18998 21.2671 8.16248 20.6645 8.16871 20.0618C8.12948 17.6578 8.92372 15.3143 10.4165 13.4295C10.5665 13.233 10.7262 13.0441 10.8952 12.8636C11.1945 12.5287 11.3957 12.1178 11.4768 11.676C11.5579 11.2342 11.5157 10.7786 11.3548 10.3592C11.1898 9.91801 11.0629 9.46353 10.9752 9.00074C10.776 7.68477 10.8413 6.34229 11.1673 5.05188C13.2922 5.652 15.2919 6.62885 17.0714 7.9359C17.3657 8.13191 17.6987 8.26235 18.0478 8.31837C18.3969 8.3744 18.754 8.3547 19.0948 8.26061C24.0359 6.91967 29.2452 6.92051 34.1859 8.26306C34.5285 8.35704 34.8875 8.37561 35.2381 8.3175C35.5886 8.25939 35.9224 8.12597 36.2164 7.92644C37.9876 6.61395 39.9789 5.62837 42.0967 5.01614C42.4213 6.27556 42.4939 7.58669 42.3104 8.87425C42.2218 9.38162 42.0835 9.87904 41.8973 10.3593C41.7364 10.7786 41.6942 11.2342 41.7753 11.676C41.8564 12.1178 42.0576 12.5288 42.3569 12.8637C42.5456 13.0762 42.7342 13.3054 42.9037 13.5202C44.3859 15.3731 45.1667 17.6897 45.1086 20.0618C45.113 20.6965 45.0823 21.3309 45.0166 21.9622C44.4783 29.4325 40.798 32.8753 32.3142 33.8422C31.8435 33.8958 31.3985 34.085 31.0333 34.3868C30.6681 34.6887 30.3985 35.0901 30.2573 35.5423C30.116 35.9945 30.1092 36.478 30.2377 36.934C30.3661 37.3901 30.6243 37.7989 30.9808 38.1109C31.5887 38.71 31.9882 39.4882 32.1208 40.3313C32.286 40.9857 32.3619 41.6595 32.3464 42.3343V48.0404C32.3225 49.6232 32.3225 50.8098 32.3225 51.3541C32.3225 52.0025 32.5801 52.6243 33.0386 53.0828C33.497 53.5413 34.1189 53.7989 34.7673 53.7989C35.4157 53.7989 36.0375 53.5413 36.496 53.0828C36.9544 52.6243 37.212 52.0025 37.212 51.3541C37.212 50.8241 37.212 49.6614 37.2359 48.0786V42.3343C37.2556 41.2533 37.1283 40.1747 36.8575 39.128C36.7801 38.7844 36.6852 38.4449 36.5734 38.111C40.2925 37.4931 43.6716 35.5756 46.1094 32.6998C48.5472 29.8239 49.8854 26.1763 49.8858 22.4063C49.9664 21.6275 50.0038 20.8448 49.9981 20.0618C50.0523 16.685 48.9646 13.3889 46.9111 10.7077Z" fill="#62A79F"/>
</svg>