<svg width="60" height="25" viewBox="0 0 60 25" fill="none" xmlns="http://www.w3.org/2000/svg">
<g clip-path="url(#clip0_1610_4908)">
<path d="M52.9367 1.52989C53.0869 1.51913 53.2205 1.48773 53.338 1.43546C53.4548 1.38383 53.549 1.30424 53.618 1.19518C53.6881 1.08719 53.723 0.935758 53.723 0.74259C53.723 0.579322 53.691 0.448751 53.6297 0.351307C53.5692 0.256747 53.4857 0.179681 53.3873 0.127594C53.2803 0.0731102 53.165 0.0375388 53.0463 0.0224056C52.9911 0.0138013 52.9362 0.00842354 52.8818 0.00390625H51.6779V1.54624H52.4585C52.6272 1.54624 52.7864 1.54107 52.9367 1.52989ZM50.1113 4.36244C50.4155 4.68274 50.7749 4.93377 51.1891 5.11661C51.603 5.29924 52.0519 5.39002 52.5349 5.39002C53.0122 5.39002 53.455 5.29903 53.8657 5.11661C54.2685 4.93941 54.6329 4.68312 54.938 4.36244C55.2417 4.04257 55.4803 3.6642 55.6528 3.2286C55.8246 2.79236 55.9114 2.31762 55.9114 1.80329C55.9114 1.30488 55.8246 0.839174 55.6528 0.40702C55.5966 0.268766 55.5321 0.134142 55.4597 0.00390625L54.2899 0.00390625C54.4092 0.209981 54.4706 0.46639 54.4706 0.775717C54.4706 1.21518 54.3498 1.53785 54.1074 1.74177C53.8657 1.94677 53.5657 2.06809 53.2059 2.10552L54.5807 4.26177H53.7774L52.4697 2.16123H51.6781V4.26177H50.9311V0.00390625H49.5896C49.5173 0.134202 49.4529 0.2689 49.397 0.407235C49.2251 0.839174 49.1385 1.30488 49.1385 1.80351C49.1385 2.31805 49.2249 2.79279 49.397 3.22882C49.5688 3.6642 49.8074 4.04257 50.1113 4.36244ZM21.1407 8.36045C20.0986 8.36045 19.5466 9.18755 19.535 10.0342H22.8846C22.8846 9.03611 22.2631 8.36045 21.1407 8.36045ZM56.2518 0.00390625C56.277 0.0566079 56.3049 0.106943 56.3284 0.161151C56.5479 0.667947 56.6584 1.2154 56.6584 1.80329C56.6584 2.40796 56.5481 2.96402 56.3284 3.4749C56.1089 3.98363 55.8124 4.42719 55.4379 4.8032C55.0629 5.18027 54.6184 5.47844 54.1298 5.68063C53.6316 5.88907 53.1001 5.99361 52.5347 5.99361C51.9706 5.99361 51.4372 5.88928 50.936 5.68063C50.4438 5.4788 49.9954 5.18068 49.6162 4.8032C49.2388 4.42697 48.9404 3.98342 48.7209 3.4749C48.501 2.96402 48.3905 2.40796 48.3905 1.80329C48.3905 1.2154 48.5008 0.667947 48.7209 0.161151C48.7444 0.106943 48.7725 0.0566079 48.7977 0.00390625H0L5.76941 24.997C17.8825 17.0803 29.5242 24.6883 29.9924 24.9785H29.9936C29.9948 24.9776 29.996 24.9769 29.9972 24.9763H30.0032C30.004 24.977 30.0057 24.9776 30.0066 24.9785H30.0085C30.4758 24.6883 42.1182 17.0803 54.231 24.997L60 0.00390625H56.2518ZM15.8541 15.1775H7.968V6.82995H11.5134V12.9061H15.8541V15.1775ZM26.4609 11.7142H19.5411C19.5411 12.8007 20.4462 13.6203 21.6525 13.6203C22.3698 13.6203 23.0232 13.3792 23.4849 12.7267H26.2444C25.3425 14.8329 23.593 15.4317 21.208 15.4317C18.1062 15.4317 15.9131 13.7248 15.9131 11.0211C15.9131 8.13351 18.0734 6.61011 21.208 6.61011C24.7149 6.61011 26.4732 8.91952 26.4732 11.1425C26.473 11.3279 26.4872 11.5131 26.4609 11.7142ZM32.8799 15.1908H29.892L25.431 6.82307H29.4569L32.0168 11.9095L32.0872 12.0629L32.1514 11.9095L34.5455 6.82286H36.963L32.8799 15.1908ZM40.759 15.1745H37.3393V6.80737H40.759V15.1745ZM43.328 7.85602L42.2979 8.99481H41.8694L42.3417 7.7532H41.3978V6.09751H43.328V7.85602ZM47.816 15.4128C44.1618 15.4128 43.4967 13.2673 43.4967 12.7358H46.1428C46.1428 13.0481 46.5591 13.4226 46.9105 13.5749C47.1996 13.7007 47.5218 13.7255 47.8232 13.7255C48.5683 13.7255 49.1796 13.5418 49.1796 13.1021C49.1796 12.5667 48.5537 12.448 47.8632 12.3473C45.9842 12.0719 43.3509 11.7512 43.3509 9.61518C43.3509 7.62285 45.4915 6.60882 47.7639 6.60882C51.4019 6.60882 52.3662 8.65687 52.3662 9.24993H49.677C49.677 9.0729 49.5443 8.73302 49.1777 8.53856C48.9057 8.39423 48.5058 8.27742 48.1193 8.27742C47.1145 8.27742 46.5492 8.48995 46.5492 8.95781C46.5492 9.34006 47.0589 9.52957 47.7906 9.65713C49.7005 9.99033 52.6333 10.1056 52.6333 12.4677C52.6331 13.6676 51.6108 15.4128 47.816 15.4128Z" fill="white"/>
<rect x="47.8428" width="9.80392" height="6" fill="white"/>
</g>
<defs>
<clipPath id="clip0_1610_4908">
<rect width="60" height="25" fill="white"/>
</clipPath>
</defs>
</svg>
