<svg width="60" height="60" viewBox="0 0 63 63" fill="none" xmlns="http://www.w3.org/2000/svg">
<path d="M44.1563 23.4272C42.0657 23.4263 40.0075 23.9434 38.1655 24.9323C37.9974 24.4896 37.6987 24.1085 37.3088 23.8397C36.919 23.5708 36.4566 23.4269 35.9831 23.4272H26.6423C26.3356 23.427 26.0318 23.4873 25.7484 23.6046C25.465 23.7218 25.2075 23.8939 24.9906 24.1107C24.7738 24.3276 24.6017 24.5851 24.4845 24.8685C24.3672 25.1519 24.3069 25.4557 24.3071 25.7624V53.7849C24.3069 54.0916 24.3672 54.3953 24.4844 54.6787C24.6017 54.9621 24.7737 55.2196 24.9906 55.4365C25.2075 55.6534 25.465 55.8254 25.7484 55.9427C26.0318 56.06 26.3355 56.1203 26.6423 56.1201H35.9831C36.2898 56.1203 36.5936 56.06 36.877 55.9427C37.1604 55.8254 37.4179 55.6534 37.6347 55.4365C37.8516 55.2196 38.0236 54.9621 38.1409 54.6787C38.2582 54.3953 38.3185 54.0916 38.3183 53.7849V40.9412C38.3183 40.3219 38.5643 39.7279 39.0023 39.29C39.4402 38.8521 40.0342 38.606 40.6535 38.606C41.2729 38.606 41.8668 38.8521 42.3048 39.29C42.7427 39.7279 42.9887 40.3219 42.9887 40.9412V53.7849C42.9886 54.0916 43.0488 54.3953 43.1661 54.6787C43.2834 54.9621 43.4554 55.2196 43.6723 55.4365C43.8892 55.6534 44.1467 55.8254 44.4301 55.9427C44.7135 56.06 45.0172 56.1203 45.3239 56.1201H54.6648C54.9715 56.1203 55.2752 56.06 55.5586 55.9427C55.842 55.8254 56.0995 55.6534 56.3164 55.4365C56.5333 55.2196 56.7053 54.9621 56.8226 54.6787C56.9399 54.3953 57.0002 54.0916 57 53.7849V36.2708C56.9958 32.8658 55.6412 29.6014 53.2335 27.1936C50.8258 24.7859 47.5614 23.4314 44.1563 23.4272ZM52.3296 51.4497H47.6592V40.9412C47.6592 39.0832 46.9211 37.3013 45.6073 35.9875C44.2934 34.6737 42.5115 33.9356 40.6535 33.9356C38.7955 33.9356 37.0136 34.6737 35.6998 35.9875C34.386 37.3013 33.6479 39.0832 33.6479 40.9412V51.4497H28.9775V28.0976H33.6479V29.7395C33.6482 30.2234 33.7987 30.6952 34.0786 31.0899C34.3586 31.4845 34.7541 31.7825 35.2107 31.9427C35.6673 32.1029 36.1623 32.1174 36.6275 31.9842C37.0926 31.851 37.5049 31.5766 37.8075 31.199C38.8555 29.868 40.2929 28.8975 41.9192 28.423C43.5454 27.9485 45.2792 27.9937 46.8786 28.5523C48.4779 29.1108 49.8628 30.1549 50.8401 31.5386C51.8173 32.9224 52.3381 34.5768 52.3296 36.2708V51.4497ZM19.6366 23.4272H10.2958C9.98908 23.427 9.68534 23.4873 9.40194 23.6046C9.11854 23.7218 8.86104 23.8939 8.64416 24.1107C8.42728 24.3276 8.25528 24.5851 8.13798 24.8685C8.02069 25.1519 7.96041 25.4557 7.96058 25.7624V53.7849C7.96041 54.0916 8.02069 54.3953 8.13798 54.6787C8.25527 54.9621 8.42727 55.2196 8.64415 55.4365C8.86103 55.6534 9.11854 55.8254 9.40194 55.9427C9.68534 56.06 9.98908 56.1203 10.2958 56.1201H19.6366C19.9433 56.1203 20.2471 56.06 20.5305 55.9427C20.8139 55.8254 21.0714 55.6534 21.2883 55.4365C21.5052 55.2196 21.6772 54.9621 21.7944 54.6787C21.9117 54.3953 21.972 54.0916 21.9718 53.7849V25.7624C21.972 25.4557 21.9117 25.1519 21.7944 24.8685C21.6771 24.5851 21.5051 24.3276 21.2883 24.1107C21.0714 23.8939 20.8139 23.7218 20.5305 23.6046C20.2471 23.4873 19.9433 23.427 19.6366 23.4272ZM17.3014 51.4497H12.631V28.0976H17.3014V51.4497ZM15.0004 6.01349C13.9784 5.95231 12.9547 6.09965 11.9915 6.44654C11.0282 6.79343 10.1456 7.33262 9.39725 8.03133C8.64892 8.73003 8.05052 9.57365 7.63846 10.5109C7.2264 11.4481 7.00927 12.4593 7.00029 13.4831C6.99131 14.5069 7.19066 15.5218 7.58621 16.4661C7.98177 17.4104 8.56527 18.2644 9.30122 18.9761C10.0372 19.6878 10.9102 20.2424 11.8672 20.6062C12.8242 20.9699 13.8452 21.1352 14.8681 21.0919H14.9343C15.959 21.1528 16.9853 21.0041 17.9506 20.6549C18.9158 20.3057 19.7998 19.7634 20.5483 19.061C21.2969 18.3587 21.8945 17.5111 22.3044 16.57C22.7143 15.6289 22.9281 14.6141 22.9326 13.5877C22.9371 12.5612 22.7322 11.5446 22.3306 10.5999C21.9289 9.65528 21.3388 8.80246 20.5965 8.09357C19.8541 7.38468 18.9749 6.83461 18.0127 6.47696C17.0506 6.11932 16.0256 5.96162 15.0004 6.01349ZM14.9343 16.4215H14.8681C14.4643 16.4706 14.0546 16.4327 13.6666 16.3104C13.2787 16.1882 12.9213 15.9844 12.6185 15.7127C12.3157 15.441 12.0745 15.1077 11.9111 14.7352C11.7477 14.3627 11.6658 13.9595 11.6709 13.5527C11.6709 11.8104 12.9776 10.6839 15.0004 10.6839C15.4084 10.6295 15.8233 10.6632 16.2171 10.7826C16.611 10.9021 16.9746 11.1046 17.2836 11.3764C17.5927 11.6482 17.8398 11.9832 18.0085 12.3586C18.1772 12.734 18.2634 13.1412 18.2615 13.5527C18.2615 15.295 16.9548 16.4215 14.9343 16.4215Z" fill="currentColor"/>
</svg>
