<svg className='cursor-pointer opacity-90' width="20" height="20" viewBox="0 0 50 51" fill="none" xmlns="http://www.w3.org/2000/svg">
    <path d="M37.1563 17.4272C35.0657 17.4263 33.0075 17.9434 31.1655 18.9323C30.9974 18.4896 30.6987 18.1085 30.3088 17.8397C29.919 17.5708 29.4566 17.4269 28.9831 17.4272H19.6423C19.3356 17.427 19.0318 17.4873 18.7484 17.6046C18.465 17.7218 18.2075 17.8939 17.9906 18.1107C17.7738 18.3276 17.6017 18.5851 17.4845 18.8685C17.3672 19.1519 17.3069 19.4557 17.3071 19.7624V47.7849C17.3069 48.0916 17.3672 48.3953 17.4844 48.6787C17.6017 48.9621 17.7737 49.2196 17.9906 49.4365C18.2075 49.6534 18.465 49.8254 18.7484 49.9427C19.0318 50.06 19.3355 50.1203 19.6423 50.1201H28.9831C29.2898 50.1203 29.5936 50.06 29.877 49.9427C30.1604 49.8254 30.4179 49.6534 30.6347 49.4365C30.8516 49.2196 31.0236 48.9621 31.1409 48.6787C31.2582 48.3953 31.3185 48.0916 31.3183 47.7849V34.9412C31.3183 34.3219 31.5643 33.7279 32.0023 33.29C32.4402 32.8521 33.0342 32.606 33.6535 32.606C34.2729 32.606 34.8668 32.8521 35.3048 33.29C35.7427 33.7279 35.9887 34.3219 35.9887 34.9412V47.7849C35.9886 48.0916 36.0488 48.3953 36.1661 48.6787C36.2834 48.9621 36.4554 49.2196 36.6723 49.4365C36.8892 49.6534 37.1467 49.8254 37.4301 49.9427C37.7135 50.06 38.0172 50.1203 38.3239 50.1201H47.6648C47.9715 50.1203 48.2752 50.06 48.5586 49.9427C48.842 49.8254 49.0995 49.6534 49.3164 49.4365C49.5333 49.2196 49.7053 48.9621 49.8226 48.6787C49.9399 48.3953 50.0002 48.0916 50 47.7849V30.2708C49.9958 26.8658 48.6412 23.6014 46.2335 21.1936C43.8258 18.7859 40.5614 17.4314 37.1563 17.4272ZM45.3296 45.4497H40.6592V34.9412C40.6592 33.0832 39.9211 31.3013 38.6073 29.9875C37.2934 28.6737 35.5115 27.9356 33.6535 27.9356C31.7955 27.9356 30.0136 28.6737 28.6998 29.9875C27.386 31.3013 26.6479 33.0832 26.6479 34.9412V45.4497H21.9775V22.0976H26.6479V23.7395C26.6482 24.2234 26.7987 24.6952 27.0786 25.0899C27.3586 25.4845 27.7541 25.7825 28.2107 25.9427C28.6673 26.1029 29.1623 26.1174 29.6275 25.9842C30.0926 25.851 30.5049 25.5766 30.8075 25.199C31.8555 23.868 33.2929 22.8975 34.9192 22.423C36.5454 21.9485 38.2792 21.9937 39.8786 22.5523C41.4779 23.1108 42.8628 24.1549 43.8401 25.5386C44.8173 26.9224 45.3381 28.5768 45.3296 30.2708V45.4497ZM12.6366 17.4272H3.29579C2.98908 17.427 2.68534 17.4873 2.40194 17.6046C2.11854 17.7218 1.86104 17.8939 1.64416 18.1107C1.42728 18.3276 1.25528 18.5851 1.13798 18.8685C1.02069 19.1519 0.960409 19.4557 0.960584 19.7624V47.7849C0.960406 48.0916 1.02069 48.3953 1.13798 48.6787C1.25527 48.9621 1.42727 49.2196 1.64415 49.4365C1.86103 49.6534 2.11854 49.8254 2.40194 49.9427C2.68534 50.06 2.98908 50.1203 3.29579 50.1201H12.6366C12.9433 50.1203 13.2471 50.06 13.5305 49.9427C13.8139 49.8254 14.0714 49.6534 14.2883 49.4365C14.5052 49.2196 14.6772 48.9621 14.7944 48.6787C14.9117 48.3953 14.972 48.0916 14.9718 47.7849V19.7624C14.972 19.4557 14.9117 19.1519 14.7944 18.8685C14.6771 18.5851 14.5051 18.3276 14.2883 18.1107C14.0714 17.8939 13.8139 17.7218 13.5305 17.6046C13.2471 17.4873 12.9433 17.427 12.6366 17.4272ZM10.3014 45.4497H5.631V22.0976H10.3014V45.4497ZM8.00042 0.0134893C6.97845 -0.0476853 5.9547 0.099652 4.99145 0.446541C4.0282 0.793431 3.14557 1.33262 2.39725 2.03133C1.64892 2.73003 1.05053 3.57365 0.638461 4.51087C0.226397 5.44809 0.00927252 6.45934 0.000290557 7.48311C-0.0086914 8.50688 0.190657 9.52178 0.586214 10.4661C0.98177 11.4104 1.56527 12.2644 2.30122 12.9761C3.03718 13.6878 3.91021 14.2424 4.86722 14.6062C5.82424 14.9699 6.84524 15.1352 7.86814 15.0919H7.93427C8.95895 15.1528 9.98528 15.0041 10.9506 14.6549C11.9158 14.3057 12.7998 13.7634 13.5483 13.061C14.2969 12.3587 14.8945 11.5111 15.3044 10.57C15.7143 9.62891 15.9281 8.61413 15.9326 7.58765C15.9371 6.56117 15.7322 5.54455 15.3306 4.59992C14.9289 3.65528 14.3388 2.80246 13.5964 2.09357C12.8541 1.38468 11.9749 0.834606 11.0127 0.476963C10.0506 0.11932 9.0256 -0.0383836 8.00042 0.0134893ZM7.93429 10.4215H7.86814C7.4643 10.4706 7.05465 10.4327 6.66665 10.3104C6.27865 10.1882 5.92128 9.98438 5.61849 9.7127C5.31571 9.44102 5.07452 9.10774 4.91109 8.73521C4.74766 8.36268 4.66578 7.95951 4.67093 7.55274C4.67093 5.81044 5.97764 4.68389 8.00042 4.68389C8.40838 4.6295 8.82326 4.66317 9.2171 4.78263C9.61095 4.90209 9.97463 5.10455 10.2836 5.3764C10.5927 5.64824 10.8398 5.98315 11.0085 6.35856C11.1772 6.73398 11.2634 7.14118 11.2615 7.55274C11.2615 9.29502 9.95479 10.4215 7.93429 10.4215Z" fill="#62A79F"/>
</svg>