<svg width="127" height="48" viewBox="0 0 127 48" fill="none" xmlns="http://www.w3.org/2000/svg">
<path d="M27.1506 11.884C27.1253 11.707 26.9736 11.6059 26.8472 11.6059C26.7208 11.6059 24.2181 11.5553 24.2181 11.5553C24.2181 11.5553 22.1199 9.53297 21.9177 9.30545C21.7154 9.10321 21.3109 9.15377 21.1593 9.20433C21.1593 9.20433 20.7548 9.33073 20.0975 9.53297C19.9964 9.17905 19.8194 8.74929 19.5919 8.29425C18.8588 6.87858 17.7465 6.12018 16.4319 6.12018C16.3308 6.12018 16.255 6.12018 16.1538 6.14546C16.1033 6.0949 16.078 6.04434 16.0274 6.01906C15.446 5.41235 14.7129 5.10899 13.8281 5.13427C12.1343 5.18483 10.4406 6.42354 9.05019 8.59761C8.08956 10.1396 7.35644 12.0609 7.12892 13.5524C5.18237 14.1591 3.81726 14.5889 3.7667 14.5889C2.78079 14.8923 2.75551 14.9175 2.62911 15.8529C2.57855 16.5607 0 36.5066 0 36.5066L21.6396 40.248L31.0184 37.9222C30.9931 37.9222 27.1759 12.0609 27.1506 11.884ZM19.0105 9.88689C18.5049 10.0385 17.9487 10.2155 17.342 10.4177C17.342 9.55825 17.2156 8.34481 16.8364 7.33362C18.1257 7.53586 18.7577 9.00209 19.0105 9.88689ZM16.2044 10.7464C15.0668 11.1003 13.8281 11.4795 12.5894 11.8587C12.9433 10.5188 13.6006 9.20433 14.4095 8.31953C14.7129 7.99089 15.1426 7.63698 15.623 7.43474C16.1286 8.42065 16.2297 9.81105 16.2044 10.7464ZM13.8787 6.27186C14.2831 6.27186 14.6118 6.3477 14.8898 6.54994C14.4348 6.77746 13.9798 7.13138 13.5753 7.58642C12.4883 8.74929 11.654 10.5441 11.3254 12.2884C10.2889 12.6171 9.27771 12.9204 8.36764 13.1985C8.97435 10.443 11.2748 6.3477 13.8787 6.27186Z" fill="white"/>
<path d="M26.8473 11.6056C26.7209 11.6056 24.2182 11.5551 24.2182 11.5551C24.2182 11.5551 22.12 9.53262 21.9177 9.3051C21.8419 9.22926 21.7408 9.17871 21.6396 9.17871V40.2477L31.0185 37.922C31.0185 37.922 27.2012 12.0607 27.1759 11.8837C27.1254 11.7067 26.9737 11.6056 26.8473 11.6056Z" fill="#D9D9D9"/>
<path d="M16.4318 16.4337L15.3447 20.5038C15.3447 20.5038 14.1313 19.9477 12.6903 20.0488C10.5668 20.1752 10.5668 21.515 10.5668 21.8436C10.6932 23.6638 15.4711 24.0683 15.7492 28.3406C15.9514 31.7028 13.9796 34.0033 11.0977 34.1802C7.65966 34.3572 5.76367 32.3348 5.76367 32.3348L6.49679 29.2254C6.49679 29.2254 8.41806 30.6663 9.93485 30.5652C10.9208 30.5146 11.3 29.6804 11.2494 29.1242C11.0977 26.7479 7.20462 26.8996 6.95182 22.9812C6.74959 19.6949 8.89837 16.3832 13.651 16.0798C15.4964 15.9534 16.4318 16.4337 16.4318 16.4337Z" fill="black"/>
<path d="M43.7092 25.105C42.6221 24.5236 42.066 24.018 42.066 23.3354C42.066 22.4759 42.8496 21.9197 44.0631 21.9197C45.4788 21.9197 46.7427 22.5012 46.7427 22.5012L47.7287 19.4676C47.7287 19.4676 46.8186 18.7598 44.1389 18.7598C40.3975 18.7598 37.7937 20.9086 37.7937 23.9169C37.7937 25.6359 39.0071 26.9252 40.625 27.8605C41.9396 28.5936 42.3946 29.1245 42.3946 29.9082C42.3946 30.7171 41.7373 31.3744 40.5239 31.3744C38.729 31.3744 37.01 30.4391 37.01 30.4391L35.9482 33.4726C35.9482 33.4726 37.5156 34.5344 40.17 34.5344C44.0125 34.5344 46.7933 32.6384 46.7933 29.2256C46.768 27.3802 45.3776 26.0656 43.7092 25.105Z" fill="white"/>
<path d="M59.0292 18.7095C57.1333 18.7095 55.6417 19.6196 54.5042 20.9847L54.4536 20.9594L56.0968 12.3643H51.8245L47.6533 34.2566H51.9256L53.3413 26.7738C53.8974 23.9425 55.3637 22.1981 56.7288 22.1981C57.6894 22.1981 58.0686 22.8554 58.0686 23.7908C58.0686 24.3722 58.0181 25.1053 57.8917 25.6868L56.2737 34.2566H60.546L62.2145 25.4087C62.3915 24.4733 62.5179 23.361 62.5179 22.6026C62.5432 20.1758 61.2792 18.7095 59.0292 18.7095Z" fill="white"/>
<path d="M72.2242 18.709C67.0671 18.709 63.6543 23.3604 63.6543 28.5428C63.6543 31.8545 65.702 34.5341 69.5445 34.5341C74.6005 34.5341 78.0133 30.0091 78.0133 24.7003C78.0386 21.6414 76.2437 18.709 72.2242 18.709ZM70.1259 31.273C68.6597 31.273 68.053 30.0343 68.053 28.467C68.053 26.0148 69.317 22.0206 71.6427 22.0206C73.1595 22.0206 73.6651 23.3352 73.6651 24.5992C73.6651 27.2283 72.3759 31.273 70.1259 31.273Z" fill="white"/>
<path d="M88.9857 18.709C86.1038 18.709 84.4606 21.2622 84.4606 21.2622H84.4101L84.6629 18.9617H80.8709C80.6939 20.5038 80.34 22.8801 80.0114 24.6497L77.0283 40.3232H81.3006L82.4888 33.978H82.5899C82.5899 33.978 83.4747 34.5342 85.0926 34.5342C90.1233 34.5342 93.4097 29.3771 93.4097 24.1694C93.4097 21.2875 92.1204 18.709 88.9857 18.709ZM84.8904 31.3236C83.7781 31.3236 83.1208 30.6916 83.1208 30.6916L83.8286 26.6974C84.3342 24.0177 85.7246 22.2481 87.2161 22.2481C88.5307 22.2481 88.9352 23.4616 88.9352 24.5992C88.9352 27.3799 87.292 31.3236 84.8904 31.3236Z" fill="white"/>
<path d="M99.5264 12.5664C98.1613 12.5664 97.0742 13.6535 97.0742 15.0439C97.0742 16.3078 97.8832 17.1926 99.0966 17.1926H99.1472C100.487 17.1926 101.625 16.2826 101.65 14.7152C101.65 13.4765 100.816 12.5664 99.5264 12.5664Z" fill="white"/>
<path d="M93.5352 34.2314H97.8075L100.715 19.0635H96.4171L93.5352 34.2314Z" fill="white"/>
<path d="M111.61 19.0378H108.627L108.779 18.3299C109.032 16.8637 109.891 15.5744 111.332 15.5744C112.091 15.5744 112.698 15.802 112.698 15.802L113.532 12.4397C113.532 12.4397 112.799 12.0605 111.206 12.0605C109.689 12.0605 108.172 12.4903 107.01 13.4762C105.543 14.7149 104.861 16.5098 104.532 18.3299L104.406 19.0378H102.409L101.777 22.2736H103.774L101.499 34.2563H105.771L108.046 22.2736H111.004L111.61 19.0378Z" fill="white"/>
<path d="M121.924 19.0635C121.924 19.0635 119.245 25.8132 118.057 29.5041H118.006C117.93 28.3159 116.944 19.0635 116.944 19.0635H112.444L115.023 32.9927C115.074 33.2961 115.048 33.4983 114.922 33.7006C114.416 34.6612 113.582 35.5965 112.596 36.2791C111.787 36.8605 110.877 37.2397 110.169 37.4925L111.357 41.1328C112.217 40.9559 114.037 40.2228 115.554 38.8071C117.5 36.9869 119.321 34.1556 121.166 30.3131L126.399 19.0635H121.924Z" fill="white"/>
</svg>
