<svg width="66" height="31" viewBox="0 0 66 31" fill="none" xmlns="http://www.w3.org/2000/svg">
<path fill-rule="evenodd" clip-rule="evenodd" d="M42.7953 1.74236V0H35.9524V9.56656H42.7953V7.98857H37.8565V5.39146H42.1816V3.68198H37.8565V1.74236H42.7953ZM40.8911 10.5528V14.2348H37.1465V10.5528H35.211V20.0869H37.1465V15.8128H40.8911V20.0869H42.7953V10.5528H40.8911ZM42.7953 22.7818V21.0732H35.9524V30.7703H42.7953V29.0289H37.8565V26.4642H42.1816V24.8867H37.8565V22.7818H42.7953ZM34.8555 0H32.9514V3.68198H29.2076V0H27.3035V9.56656H29.2076V5.29284H32.9514V9.56656H34.8555V0ZM19.106 0V1.74236H22.0106V9.56656H23.9148V1.74236H26.8194V0H19.106ZM13.1031 10.2898C10.1016 10.2898 8.52024 12.0322 8.52024 15.3196C8.52024 18.7715 10.1016 20.481 13.1031 20.481C16.1045 20.481 17.6537 18.7715 17.6537 15.3196C17.6537 12.0322 16.1045 10.2898 13.1031 10.2898ZM10.5857 15.3196C10.5857 13.117 11.4249 12.0322 13.1031 12.0322C14.9104 12.0322 15.7495 13.117 15.7495 15.3196C15.7495 17.6542 14.9104 18.7715 13.1031 18.7715C11.4249 18.7715 10.5857 17.6542 10.5857 15.3196ZM5.77698 10.5528V17.2921L2.03324 10.5528H0V20.0869H1.80732V13.38L5.64788 20.0869H7.68112V10.5528H5.77698ZM14.6522 25.0177V22.7818H19.461V21.0732H12.7481V30.7703H14.6522V26.7272H18.8801V25.0177H14.6522ZM34.501 12.2623V10.5528H26.8194V12.2623H29.6917V20.0869H31.6281V12.2623H34.501ZM22.5915 16.4378C23.2047 16.4378 23.6888 16.536 23.9148 16.799L24.2698 20.0869H26.4321V19.8568C26.2062 19.7249 26.0771 19.1336 26.0771 18.0154C26.0771 16.668 25.593 15.9443 24.883 15.5826C25.8512 15.1881 26.3353 14.4649 26.3353 13.2485C26.3353 11.539 25.3671 10.5528 23.3338 10.5528H18.6219V20.0869H20.5583V16.4378H22.5915ZM20.5583 14.8265V12.2623H22.9465C23.9148 12.2623 24.3989 12.6239 24.3989 13.4787C24.3989 14.3334 23.9148 14.8265 22.8497 14.8265H20.5583ZM23.9148 21.0732H21.6233L18.2669 30.7703H20.3001L21.0424 28.6668H24.528L25.1089 30.7703H27.1744L23.9148 21.0732ZM22.7206 23.2749L23.9148 27.0893H21.5265L22.7206 23.2749ZM33.3068 24.2611H35.211C35.1137 23.4068 34.8555 22.6836 34.2741 22.0585C33.4355 21.3353 32.4673 20.8422 31.144 20.8422C29.8208 20.8422 28.8526 21.3353 28.0135 22.1905C27.3035 23.0448 26.8194 24.2611 26.8194 25.8724C26.8194 29.2914 28.2394 31 31.015 31C33.4355 31 34.7582 29.7836 35.211 27.45H33.3068C33.0486 28.5673 32.2091 29.1595 31.144 29.1595C29.5626 29.1595 28.8526 28.0751 28.8526 25.9706C28.8526 23.6698 29.5626 22.5516 31.144 22.5516C32.2091 22.5516 32.8227 23.1767 33.3068 24.2611ZM44.118 0C50.1214 0 55.317 2.23548 59.5126 6.5092C63.8372 10.9144 66 16.1744 66 22.3215V30.7703H57.2216V22.0585C57.2216 18.6405 56.0275 15.6813 53.6069 13.2485C53.0256 12.6239 52.4128 12.1308 51.7028 11.6377C49.7664 10.2898 47.4749 9.69806 45.0867 9.69806H44.1185V0H44.118ZM56.3816 30.7703H49.5396V24.031C49.5396 22.9137 49.185 22.0585 48.4427 21.3353C47.7327 20.5801 46.7645 20.218 45.7963 20.218H44.118V10.5528H45.0862C47.6031 10.5528 49.7655 11.276 51.7023 12.7554C52.1864 12.9855 52.6705 13.4787 53.0251 13.8403C55.317 16.1748 56.3816 18.8706 56.3816 22.059V30.7703ZM48.7009 30.7703H44.1176V21.0732H45.7963C46.5386 21.0732 47.2486 21.3353 47.8613 21.9275C48.3454 22.4206 48.7009 23.1767 48.7009 24.031V30.7703Z" fill="white"/>
</svg>
