<?xml version="1.0" encoding="UTF-8"?>
<svg id="Layer_9" data-name="Layer 9" xmlns="http://www.w3.org/2000/svg" viewBox="0 0 1009.44 1056.2">
  <defs>
    <style>
      .cls-1 {
        fill: #fff;
      }
    </style>
  </defs>
  <path class="cls-1" d="m799.98,840.11c-9.42,8.36-21.37,12.71-33.39,12.71-8.51,0-17.06-2.18-24.77-6.66-27.37-15.89-57.07-26.58-87.6-32-6.45-1.14-13.07.12-18.71,3.44-14.02,8.27-28.63,15.63-43.76,22.03-9.22,3.89-18.55,7.4-27.99,10.52-22.72,7.5-45.91-2.32-57.61-20.66-4.9-7.68-7.79-16.84-7.79-26.86,0-10.75,3.42-20.94,9.38-29.29,5.97-8.35,14.48-14.85,24.69-18.23,30.5-10.09,58.6-25.51,83.19-45.16,61.57-49.22,101.08-124.93,101.08-209.69,0-118.61-77.36-219.5-184.27-254.86-20.41-6.75-34.07-26.01-34.07-47.52,0-28.44,23.29-50.05,49.8-50.05,5.13,0,10.38.81,15.6,2.53,9.44,3.12,18.77,6.63,27.99,10.53,43.87,18.55,83.25,45.11,117.06,78.92s60.37,73.19,78.92,117.06c19.22,45.44,28.97,93.69,28.97,143.39s-9.75,97.95-28.97,143.39c-9.21,21.79-20.4,42.47-33.47,61.91-9.35,13.91-4.05,32.8,11.1,39.99.1.05.21.1.31.15,9.04,4.31,17.86,8.97,26.45,13.96,29.35,17.04,33.25,57.93,7.86,80.45Z"/>
  <circle class="cls-1" cx="502.76" cy="500.32" r="113.95"/>
  <path class="cls-1" d="m406.96,308.12h0c0-37.53-39.77-61.73-73.1-44.48-24.24,12.55-46.66,28.91-66.52,48.76-50.64,50.65-78.54,117.99-78.54,189.62s27.9,138.97,78.54,189.62c19.86,19.85,42.28,36.21,66.52,48.76,33.33,17.26,73.1-6.95,73.1-44.48h0c0-18.82-10.62-35.92-27.31-44.6-53.93-28.04-90.85-84.44-90.85-149.31s36.92-121.27,90.85-149.31c16.7-8.68,27.31-25.78,27.31-44.6Z"/>
</svg>