<svg xmlns="http://www.w3.org/2000/svg" viewBox="0 -0.5 350 350" shape-rendering="crispEdges">
<metadata>Made with Pixels to Svg https://codepen.io/shshaw/pen/XbxvNj</metadata>
<path stroke="#000000" d="M115 3h116M115 4h116M115 5h116M115 6h116M101 7h14M231 7h14M101 8h14M231 8h14M101 9h14M231 9h14M94 10h7M245 10h10M94 11h7M245 11h10M94 12h7M245 12h10M94 13h7M245 13h10M91 14h3M255 14h4M91 15h3M255 15h4M91 16h3M255 16h4M87 17h4M259 17h3M87 18h4M259 18h3M87 19h4M259 19h3M87 20h4M259 20h3M84 21h3M262 21h4M84 22h3M262 22h4M84 23h3M262 23h4M80 24h4M266 24h3M80 25h4M266 25h3M80 26h4M266 26h3M80 27h4M266 27h3M77 28h3M126 28h84M266 28h3M77 29h3M126 29h84M266 29h3M77 30h3M126 30h84M266 30h3M73 31h4M115 31h11M210 31h24M266 31h3M73 32h4M115 32h11M210 32h24M266 32h3M73 33h4M115 33h11M210 33h24M266 33h3M73 34h4M115 34h11M210 34h24M266 34h3M73 35h4M112 35h3M234 35h7M269 35h4M73 36h4M112 36h3M234 36h7M269 36h4M73 37h4M112 37h3M234 37h7M269 37h4M73 38h4M108 38h4M241 38h4M269 38h4M73 39h4M108 39h4M241 39h4M269 39h4M73 40h4M108 40h4M241 40h4M269 40h4M73 41h4M108 41h4M241 41h4M269 41h4M70 42h3M108 42h4M245 42h3M269 42h4M70 43h3M108 43h4M245 43h3M269 43h4M70 44h3M108 44h4M245 44h3M269 44h4M70 45h3M105 45h3M245 45h3M273 45h3M70 46h3M105 46h3M245 46h3M273 46h3M70 47h3M105 47h3M245 47h3M273 47h3M70 48h3M105 48h3M245 48h3M273 48h3M70 49h3M105 49h3M245 49h3M273 49h3M70 50h3M105 50h3M245 50h3M273 50h3M70 51h3M105 51h3M245 51h3M273 51h3M70 52h3M245 52h3M273 52h3M70 53h3M245 53h3M273 53h3M70 54h3M245 54h3M273 54h3M70 55h3M245 55h3M273 55h3M70 56h3M245 56h3M273 56h3M70 57h3M245 57h3M273 57h3M70 58h3M245 58h3M273 58h3M70 59h3M273 59h3M70 60h3M273 60h3M70 61h3M273 61h3M70 62h3M273 62h3M70 63h3M273 63h3M70 64h3M273 64h3M70 65h3M273 65h3M70 66h3M273 66h3M70 67h3M273 67h3M70 68h3M273 68h3M70 69h3M273 69h3M70 70h3M273 70h3M70 71h3M273 71h3M70 72h3M273 72h3M70 73h3M273 73h3M70 74h3M273 74h3M70 75h3M273 75h3M70 76h3M273 76h3M70 77h3M273 77h3M70 78h3M273 78h3M70 79h3M273 79h3M70 80h3M273 80h3M70 81h3M273 81h3M70 82h3M273 82h3M70 83h3M273 83h3M66 84h7M273 84h7M66 85h7M273 85h7M66 86h7M273 86h7M63 87h3M70 87h3M273 87h3M280 87h3M63 88h3M70 88h3M273 88h3M280 88h3M63 89h3M70 89h3M273 89h3M280 89h3M63 90h3M70 90h3M273 90h3M280 90h3M59 91h4M273 91h3M283 91h4M59 92h4M273 92h3M283 92h4M59 93h4M273 93h3M283 93h4M56 94h3M73 94h4M273 94h3M287 94h3M56 95h3M73 95h4M273 95h3M287 95h3M56 96h3M73 96h4M273 96h3M287 96h3M56 97h3M73 97h4M273 97h3M287 97h3M52 98h4M73 98h4M290 98h4M52 99h4M73 99h4M290 99h4M52 100h4M73 100h4M290 100h4M49 101h3M119 101h7M273 101h3M294 101h3M49 102h3M119 102h7M273 102h3M294 102h3M49 103h3M119 103h7M273 103h3M294 103h3M49 104h3M119 104h7M273 104h3M294 104h3M49 105h3M112 105h3M119 105h7M217 105h14M273 105h3M294 105h3M49 106h3M112 106h3M119 106h7M217 106h14M273 106h3M294 106h3M49 107h3M112 107h3M119 107h7M217 107h14M273 107h3M294 107h3M45 108h4M112 108h14M217 108h10M297 108h4M45 109h4M112 109h14M217 109h10M297 109h4M45 110h4M112 110h14M217 110h10M297 110h4M45 111h4M112 111h14M217 111h10M297 111h4M42 112h3M217 112h7M301 112h3M42 113h3M217 113h7M301 113h3M42 114h3M217 114h7M301 114h3M42 115h3M301 115h3M42 116h3M301 116h3M42 117h3M301 117h3M42 118h3M301 118h3M38 119h4M304 119h4M38 120h4M304 120h4M38 121h4M304 121h4M35 122h3M308 122h3M35 123h3M308 123h3M35 124h3M308 124h3M35 125h3M308 125h3M35 126h3M308 126h3M35 127h3M308 127h3M35 128h3M308 128h3M31 129h4M311 129h4M31 130h4M311 130h4M31 131h4M311 131h4M31 132h4M311 132h4M31 133h4M311 133h4M31 134h4M311 134h4M31 135h4M311 135h4M28 136h3M315 136h3M28 137h3M315 137h3M28 138h3M315 138h3M28 139h3M315 139h3M28 140h3M315 140h3M28 141h3M315 141h3M28 142h3M315 142h3M28 143h3M315 143h3M28 144h3M315 144h3M28 145h3M315 145h3M28 146h3M315 146h3M24 147h4M318 147h4M24 148h4M318 148h4M24 149h4M318 149h4M24 150h4M318 150h4M24 151h4M318 151h4M24 152h4M318 152h4M24 153h4M318 153h4M24 154h4M318 154h4M24 155h4M318 155h4M24 156h4M318 156h4M21 157h3M322 157h3M21 158h3M322 158h3M21 159h3M322 159h3M21 160h3M322 160h3M21 161h3M322 161h3M21 162h3M322 162h3M21 163h3M322 163h3M21 164h3M322 164h3M21 165h3M322 165h3M21 166h3M322 166h3M21 167h3M322 167h3M21 168h3M322 168h3M21 169h3M322 169h3M21 170h3M322 170h3M21 171h3M322 171h3M21 172h3M322 172h3M21 173h3M322 173h3M21 174h3M322 174h3M17 175h4M325 175h4M17 176h4M325 176h4M17 177h4M325 177h4M17 178h4M325 178h4M17 179h4M325 179h4M17 180h4M325 180h4M17 181h4M325 181h4M17 182h4M325 182h4M17 183h4M325 183h4M17 184h4M325 184h4M17 185h4M325 185h4M17 186h4M325 186h4M17 187h4M325 187h4M17 188h4M325 188h4M17 189h4M325 189h4M17 190h4M325 190h4M17 191h4M325 191h4M17 192h4M325 192h4M17 193h4M325 193h4M17 194h4M325 194h4M17 195h4M325 195h4M17 196h4M325 196h4M17 197h4M325 197h4M17 198h4M325 198h4M17 199h4M325 199h4M17 200h4M325 200h4M17 201h4M325 201h4M17 202h4M325 202h4M17 203h4M325 203h4M17 204h4M325 204h4M17 205h4M325 205h4M17 206h4M325 206h4M17 207h4M325 207h4M17 208h4M325 208h4M17 209h4M325 209h4M17 210h4M325 210h4M17 211h4M325 211h4M17 212h4M325 212h4M17 213h4M325 213h4M17 214h4M325 214h4M17 215h4M325 215h4M17 216h4M325 216h4M17 217h4M325 217h4M17 218h4M325 218h4M17 219h4M325 219h4M21 220h3M322 220h3M21 221h3M322 221h3M21 222h3M322 222h3M21 223h3M322 223h3M21 224h3M322 224h3M21 225h3M322 225h3M21 226h3M322 226h3M21 227h3M322 227h3M21 228h3M322 228h3M21 229h3M322 229h3M21 230h3M322 230h3M21 231h3M322 231h3M21 232h3M322 232h3M21 233h3M322 233h3M21 234h3M322 234h3M21 235h3M322 235h3M21 236h3M322 236h3M21 237h3M322 237h3M24 238h4M318 238h4M24 239h4M318 239h4M24 240h4M318 240h4M24 241h4M318 241h4M24 242h4M318 242h4M24 243h4M318 243h4M24 244h4M318 244h4M24 245h4M318 245h4M24 246h4M318 246h4M24 247h4M318 247h4M28 248h3M315 248h3M28 249h3M315 249h3M28 250h3M315 250h3M28 251h3M315 251h3M28 252h3M315 252h3M28 253h3M315 253h3M28 254h3M315 254h3M28 255h3M315 255h3M28 256h3M315 256h3M28 257h3M315 257h3M28 258h3M315 258h3M31 259h4M311 259h4M31 260h4M311 260h4M31 261h4M311 261h4M31 262h4M311 262h4M31 263h4M311 263h4M31 264h4M311 264h4M31 265h4M311 265h4M35 266h3M308 266h3M35 267h3M308 267h3M35 268h3M308 268h3M35 269h3M308 269h3M35 270h3M308 270h3M35 271h3M308 271h3M35 272h3M308 272h3M38 273h4M304 273h4M38 274h4M304 274h4M38 275h4M304 275h4M42 276h3M301 276h3M42 277h3M301 277h3M42 278h3M301 278h3M42 279h3M301 279h3M42 280h3M301 280h3M42 281h3M301 281h3M42 282h3M301 282h3M45 283h4M297 283h4M45 284h4M297 284h4M45 285h4M297 285h4M45 286h4M297 286h4M49 287h3M294 287h3M49 288h3M294 288h3M49 289h3M294 289h3M49 290h3M294 290h3M49 291h3M294 291h3M49 292h3M294 292h3M49 293h3M294 293h3M52 294h4M290 294h4M52 295h4M290 295h4M52 296h4M290 296h4M56 297h3M287 297h3M56 298h3M287 298h3M56 299h3M287 299h3M56 300h3M287 300h3M59 301h4M283 301h4M59 302h4M283 302h4M59 303h4M283 303h4M63 304h3M280 304h3M63 305h3M280 305h3M63 306h3M280 306h3M63 307h3M280 307h3M66 308h4M276 308h4M66 309h4M276 309h4M66 310h4M276 310h4M70 311h3M273 311h3M70 312h3M273 312h3M70 313h3M273 313h3M70 314h3M273 314h3M73 315h4M269 315h4M73 316h4M269 316h4M73 317h4M269 317h4M77 318h7M262 318h7M77 319h7M262 319h7M77 320h7M262 320h7M77 321h7M262 321h7M84 322h3M259 322h3M84 323h3M259 323h3M84 324h3M259 324h3M87 325h7M252 325h7M87 326h7M252 326h7M87 327h7M252 327h7M87 328h7M252 328h7M94 329h4M248 329h4M94 330h4M248 330h4M94 331h4M248 331h4M98 332h7M241 332h7M98 333h7M241 333h7M98 334h7M241 334h7M98 335h7M241 335h7M105 336h7M234 336h7M105 337h7M234 337h7M105 338h7M234 338h7M112 339h10M224 339h10M112 340h10M224 340h10M112 341h10M224 341h10M112 342h10M224 342h10M122 343h11M213 343h11M122 344h11M213 344h11M122 345h11M213 345h11M133 346h80M133 347h80M133 348h80M133 349h80" />
<path stroke="#7f9299" d="M115 7h11M129 7h4M115 8h11M129 8h4M115 9h11M129 9h4M101 10h11M101 11h11M101 12h11M101 13h11M94 14h7M94 15h7M94 16h7M91 17h3M91 18h3M91 19h3M91 20h3M87 21h4M87 22h4M87 23h4M84 24h3M84 25h3M84 26h3M84 27h3M80 28h4M80 29h4M80 30h4M77 31h3M77 32h3M77 33h3M77 34h3M77 35h3M77 36h3M77 37h3M77 38h3M77 39h3M77 40h3M77 41h3M73 42h4M73 43h4M73 44h4M73 45h4M73 46h4M73 47h4M73 48h4M73 49h4M73 50h4M73 51h4M73 52h4M73 53h4M73 54h4M73 55h4M73 56h4M73 57h4M73 58h4M73 59h4M73 60h4M73 61h4M73 62h4M73 66h4M73 67h4M73 68h4M73 69h4" />
<path stroke="#46585e" d="M126 7h3M133 7h98M126 8h3M133 8h98M126 9h3M133 9h98M112 10h3M119 10h3M133 10h3M140 10h7M161 10h10M178 10h7M192 10h4M199 10h4M206 10h7M217 10h3M224 10h3M231 10h14M112 11h3M119 11h3M133 11h3M140 11h7M161 11h10M178 11h7M192 11h4M199 11h4M206 11h7M217 11h3M224 11h3M231 11h14M112 12h3M119 12h3M133 12h3M140 12h7M161 12h10M178 12h7M192 12h4M199 12h4M206 12h7M217 12h3M224 12h3M231 12h14M112 13h3M119 13h3M133 13h3M140 13h7M161 13h10M178 13h7M192 13h4M199 13h4M206 13h7M217 13h3M224 13h3M231 13h14M101 14h11M234 14h7M245 14h10M101 15h11M234 15h7M245 15h10M101 16h11M234 16h7M245 16h10M94 17h7M241 17h4M248 17h4M255 17h4M94 18h7M241 18h4M248 18h4M255 18h4M94 19h7M241 19h4M248 19h4M255 19h4M94 20h7M241 20h4M248 20h4M255 20h4M91 21h7M252 21h3M259 21h3M91 22h7M252 22h3M259 22h3M91 23h7M252 23h3M259 23h3M87 24h7M255 24h4M262 24h4M87 25h7M255 25h4M262 25h4M87 26h7M255 26h4M262 26h4M87 27h7M255 27h4M262 27h4M84 28h7M259 28h7M84 29h7M259 29h7M84 30h7M259 30h7M80 31h7M262 31h4M80 32h7M262 32h4M80 33h7M262 33h4M80 34h7M262 34h4M80 35h4M259 35h3M266 35h3M80 36h4M259 36h3M266 36h3M80 37h4M259 37h3M266 37h3M262 38h7M262 39h7M262 40h7M262 41h7M262 42h7M262 43h7M262 44h7M77 45h3M269 45h4M77 46h3M269 46h4M77 47h3M269 47h4M77 48h3M269 48h4M77 49h3M266 49h7M77 50h3M266 50h7M77 51h3M266 51h7M269 52h4M269 53h4M269 54h4M269 55h4M77 56h3M266 56h7M77 57h3M266 57h7M77 58h3M266 58h7M269 59h4M269 60h4M269 61h4M269 62h4M73 63h4M266 63h7M73 64h4M266 64h7M73 65h4M266 65h7M266 66h7M266 67h7M266 68h7M266 69h7M73 70h4M269 70h4M73 71h4M269 71h4M73 72h4M269 72h4M73 73h4M266 73h7M73 74h4M266 74h7M73 75h4M266 75h7M73 76h4M266 76h7M73 77h4M269 77h4M73 78h4M269 78h4M73 79h4M269 79h4M73 80h4M266 80h7M73 81h4M266 81h7M73 82h4M266 82h7M73 83h4M266 83h7M73 84h4M269 84h4M73 85h4M269 85h4M73 86h4M269 86h4M73 87h4M269 87h4M73 88h4M269 88h4M73 89h4M269 89h4M73 90h4M269 90h4M269 91h4M269 92h4M269 93h4M269 94h4M269 95h4M269 96h4M269 97h4" />
<path stroke="#2d393d" d="M115 10h4M122 10h11M136 10h4M147 10h14M171 10h7M185 10h7M196 10h3M203 10h3M213 10h4M220 10h4M227 10h4M115 11h4M122 11h11M136 11h4M147 11h14M171 11h7M185 11h7M196 11h3M203 11h3M213 11h4M220 11h4M227 11h4M115 12h4M122 12h11M136 12h4M147 12h14M171 12h7M185 12h7M196 12h3M203 12h3M213 12h4M220 12h4M227 12h4M115 13h4M122 13h11M136 13h4M147 13h14M171 13h7M185 13h7M196 13h3M203 13h3M213 13h4M220 13h4M227 13h4M112 14h3M119 14h3M129 14h4M136 14h11M161 14h10M178 14h11M196 14h3M203 14h7M224 14h10M241 14h4M112 15h3M119 15h3M129 15h4M136 15h11M161 15h10M178 15h11M196 15h3M203 15h7M224 15h10M241 15h4M112 16h3M119 16h3M129 16h4M136 16h11M161 16h10M178 16h11M196 16h3M203 16h7M224 16h10M241 16h4M101 17h11M115 17h7M210 17h14M245 17h3M252 17h3M101 18h11M115 18h7M210 18h14M245 18h3M252 18h3M101 19h11M115 19h7M210 19h14M245 19h3M252 19h3M101 20h11M115 20h7M210 20h14M245 20h3M252 20h3M98 21h7M108 21h4M227 21h11M245 21h7M255 21h4M98 22h7M108 22h4M227 22h11M245 22h7M255 22h4M98 23h7M108 23h4M227 23h11M245 23h7M255 23h4M94 24h11M241 24h4M252 24h3M259 24h3M94 25h11M241 25h4M252 25h3M259 25h3M94 26h11M241 26h4M252 26h3M259 26h3M94 27h11M241 27h4M252 27h3M259 27h3M91 28h3M98 28h3M248 28h11M91 29h3M98 29h3M248 29h11M91 30h3M98 30h3M248 30h11M87 31h4M248 31h4M255 31h7M87 32h4M248 32h4M255 32h7M87 33h4M248 33h4M255 33h7M87 34h4M248 34h4M255 34h7M84 35h10M252 35h7M262 35h4M84 36h10M252 36h7M262 36h4M84 37h10M252 37h7M262 37h4M80 38h7M252 38h3M259 38h3M80 39h7M252 39h3M259 39h3M80 40h7M252 40h3M259 40h3M80 41h7M252 41h3M259 41h3M77 42h14M255 42h7M77 43h14M255 43h7M77 44h14M255 44h7M80 45h7M255 45h14M80 46h7M255 46h14M80 47h7M255 47h14M80 48h7M255 48h14M80 49h7M255 49h4M262 49h4M80 50h7M255 50h4M262 50h4M80 51h7M255 51h4M262 51h4M77 52h7M259 52h10M77 53h7M259 53h10M77 54h7M259 54h10M77 55h7M259 55h10M80 56h4M80 57h4M80 58h4M259 59h3M266 59h3M259 60h3M266 60h3M259 61h3M266 61h3M259 62h3M266 62h3M77 63h3M77 64h3M77 65h3M77 66h3M262 66h4M77 67h3M262 67h4M77 68h3M262 68h4M77 69h3M262 69h4M262 70h7M262 71h7M262 72h7M77 73h3M262 73h4M77 74h3M262 74h4M77 75h3M262 75h4M77 76h3M262 76h4M77 77h3M262 77h7M77 78h3M262 78h7M77 79h3M262 79h7M262 80h4M262 81h4M262 82h4M262 83h4M266 84h3M266 85h3M266 86h3M266 87h3M266 88h3M266 89h3M266 90h3M266 91h3M266 92h3M266 93h3" />
<path stroke="#203034" d="M115 14h4M122 14h7M133 14h3M147 14h14M171 14h7M189 14h7M199 14h4M210 14h14M115 15h4M122 15h7M133 15h3M147 15h14M171 15h7M189 15h7M199 15h4M210 15h14M115 16h4M122 16h7M133 16h3M147 16h14M171 16h7M189 16h7M199 16h4M210 16h14M112 17h3M122 17h88M224 17h17M112 18h3M122 18h88M224 18h17M112 19h3M122 19h88M224 19h17M112 20h3M122 20h88M224 20h17M105 21h3M112 21h28M171 21h4M206 21h21M238 21h7M105 22h3M112 22h28M171 22h4M206 22h21M238 22h7M105 23h3M112 23h28M171 23h4M206 23h21M238 23h7M105 24h17M213 24h28M245 24h7M105 25h17M213 25h28M245 25h7M105 26h17M213 26h28M245 26h7M105 27h17M213 27h28M245 27h7M94 28h4M101 28h14M238 28h10M94 29h4M101 29h14M238 29h10M94 30h4M101 30h14M238 30h10M91 31h21M241 31h7M252 31h3M91 32h21M241 32h7M252 32h3M91 33h21M241 33h7M252 33h3M91 34h21M241 34h7M252 34h3M94 35h11M245 35h7M94 36h11M245 36h7M94 37h11M245 37h7M87 38h14M248 38h4M255 38h4M87 39h14M248 39h4M255 39h4M87 40h14M248 40h4M255 40h4M87 41h14M248 41h4M255 41h4M91 42h10M252 42h3M91 43h10M252 43h3M91 44h10M252 44h3M87 45h11M252 45h3M87 46h11M252 46h3M87 47h11M252 47h3M87 48h11M252 48h3M87 49h7M252 49h3M259 49h3M87 50h7M252 50h3M259 50h3M87 51h7M252 51h3M259 51h3M84 52h7M255 52h4M84 53h7M255 53h4M84 54h7M255 54h4M84 55h7M255 55h4M84 56h3M255 56h11M84 57h3M255 57h11M84 58h3M255 58h11M77 59h10M262 59h4M77 60h10M262 60h4M77 61h10M262 61h4M77 62h10M262 62h4M80 63h4M262 63h4M80 64h4M262 64h4M80 65h4M262 65h4M259 66h3M259 67h3M259 68h3M259 69h3M77 70h3M259 70h3M77 71h3M259 71h3M77 72h3M259 72h3M259 73h3M259 74h3M259 75h3M259 76h3M77 80h3M77 81h3M77 82h3M77 83h3M77 84h3M77 85h3M77 86h3M77 87h3M77 88h3M77 89h3M77 90h3" />
<path stroke="rgba(0,0,0,0.00392156862745098)" d="M80 21h4M80 22h4M80 23h4" />
<path stroke="#122428" d="M140 21h31M175 21h31M140 22h31M175 22h31M140 23h31M175 23h31M122 24h91M122 25h91M122 26h91M122 27h91M115 28h11M210 28h28M115 29h11M210 29h28M115 30h11M210 30h28M112 31h3M234 31h7M112 32h3M234 32h7M112 33h3M234 33h7M112 34h3M234 34h7M105 35h7M241 35h4M105 36h7M241 36h4M105 37h7M241 37h4M101 38h7M245 38h3M101 39h7M245 39h3M101 40h7M245 40h3M101 41h7M245 41h3M101 42h7M248 42h4M101 43h7M248 43h4M101 44h7M248 44h4M98 45h7M248 45h4M98 46h7M248 46h4M98 47h7M248 47h4M98 48h7M248 48h4M94 49h11M248 49h4M94 50h11M248 50h4M94 51h11M248 51h4M91 52h14M248 52h7M91 53h14M248 53h7M91 54h14M248 54h7M91 55h14M248 55h7M87 56h14M248 56h7M87 57h14M248 57h7M87 58h14M248 58h7M87 59h7M248 59h11M87 60h7M248 60h11M87 61h7M248 61h11M87 62h7M248 62h11M84 63h7M252 63h7M84 64h7M252 64h7M84 65h7M252 65h7M80 66h7M255 66h4M80 67h7M255 67h4M80 68h7M255 68h4M80 69h7M255 69h4M80 70h7M255 70h4M80 71h7M255 71h4M80 72h7M255 72h4M80 73h4M80 74h4M80 75h4M80 76h4M80 77h4M80 78h4M80 79h4" />
<path stroke="rgba(0,0,0,0.01568627450980392)" d="M77 24h3M77 25h3M77 26h3M77 27h3M14 217h3M14 218h3M14 219h3" />
<path stroke="#252b31" d="M171 38h7M171 39h7M171 40h7M171 41h7M168 42h3M178 42h4M168 43h3M178 43h4M168 44h3M178 44h4M168 45h3M178 45h4M168 46h3M178 46h4M168 47h3M178 47h4M168 48h3M178 48h4M168 49h3M178 49h4M168 50h3M178 50h4M168 51h3M178 51h4M168 52h3M178 52h4M168 53h3M178 53h4M168 54h3M178 54h4M168 55h3M178 55h4M178 56h4M178 57h4M178 58h4M168 105h3M168 106h3M168 107h3M168 108h3M178 108h4M168 109h3M178 109h4M168 110h3M178 110h4M168 111h3M178 111h4M168 112h3M178 112h4M168 113h3M178 113h4M168 114h3M178 114h4M168 115h3M178 115h4M168 116h3M178 116h4M168 117h3M178 117h4M168 118h3M178 118h4M168 119h3M178 119h4M168 120h3M178 120h4M168 121h3M178 121h4M168 122h3M178 122h4M168 123h3M178 123h4M168 124h3M178 124h4M168 125h3M178 125h4M168 126h3M178 126h4M168 127h3M178 127h4M168 128h3M178 128h4M168 129h3M178 129h4M168 130h3M178 130h4M168 131h3M178 131h4M168 132h3M178 132h4M168 133h3M178 133h4M168 134h3M178 134h4M168 135h3M178 135h4M168 136h3M178 136h4M168 137h3M178 137h4M168 138h3M178 138h4M168 139h3M178 139h4M168 140h3M178 140h4M168 141h3M178 141h4M168 142h3M178 142h4M168 143h3M178 143h4M168 144h3M178 144h4M168 145h3M178 145h4M168 146h3M178 146h4M168 147h3M178 147h4M168 148h3M178 148h4M168 149h3M178 149h4M171 150h7M171 151h7M171 152h7M171 153h7" />
<path stroke="#4a1a14" d="M140 42h28M182 42h24M140 43h28M182 43h24M140 44h28M182 44h24M126 45h14M203 45h17M126 46h14M203 46h17M126 47h14M203 47h17M126 48h14M203 48h17M115 49h11M220 49h11M115 50h11M220 50h11M115 51h11M220 51h11M105 52h10M231 52h7M105 53h10M231 53h7M105 54h10M231 54h7M105 55h10M231 55h7M101 56h4M238 56h7M101 57h4M238 57h7M101 58h4M238 58h7M98 59h3M245 59h3M98 60h3M245 60h3M98 61h3M245 61h3M98 62h3M245 62h3M94 63h4M248 63h4M94 64h4M248 64h4M94 65h4M248 65h4M91 66h3M252 66h3M91 67h3M252 67h3M91 68h3M252 68h3M91 69h3M252 69h3M87 70h4M252 70h3M87 71h4M252 71h3M87 72h4M252 72h3M87 73h4M255 73h4M87 74h4M255 74h4M87 75h4M255 75h4M87 76h4M255 76h4M84 77h3M259 77h3M84 78h3M259 78h3M84 79h3M259 79h3M84 80h3M259 80h3M84 81h3M259 81h3M84 82h3M259 82h3M84 83h3M259 83h3M80 84h4M262 84h4M80 85h4M262 85h4M80 86h4M262 86h4M80 87h4M262 87h4M80 88h4M262 88h4M80 89h4M262 89h4M80 90h4M262 90h4M262 91h4M262 92h4M262 93h4M77 94h3M266 94h3M77 95h3M266 95h3M77 96h3M266 96h3M77 97h3M266 97h3M266 98h3M266 99h3M266 100h3M73 101h4M269 101h4M73 102h4M269 102h4M73 103h4M269 103h4M73 104h4M269 104h4M73 105h4M269 105h4M73 106h4M269 106h4M73 107h4M269 107h4M73 108h4M269 108h4M73 109h4M269 109h4M73 110h4M269 110h4M73 111h4M269 111h4M73 112h4M269 112h4M73 113h4M269 113h4M73 114h4M269 114h4M73 115h4M269 115h4M73 116h4M269 116h4M73 117h4M269 117h4M73 118h4M269 118h4M73 119h4M136 119h4M210 119h3M269 119h4M73 120h4M136 120h4M210 120h3M269 120h4M73 121h4M136 121h4M210 121h3M269 121h4M73 122h4M140 122h3M206 122h4M269 122h4M73 123h4M140 123h3M206 123h4M269 123h4M73 124h4M140 124h3M206 124h4M269 124h4M73 125h4M140 125h3M206 125h4M269 125h4M73 126h4M140 126h3M203 126h3M269 126h4M73 127h4M140 127h3M203 127h3M269 127h4M73 128h4M140 128h3M203 128h3M269 128h4M73 129h4M140 129h3M203 129h3M269 129h4M73 130h4M140 130h3M203 130h3M269 130h4M73 131h4M140 131h3M203 131h3M269 131h4M73 132h4M140 132h3M203 132h3M269 132h4M73 133h4M136 133h4M203 133h3M269 133h4M73 134h4M136 134h4M203 134h3M269 134h4M73 135h4M136 135h4M203 135h3M269 135h4M73 136h4M136 136h4M203 136h3M269 136h4M73 137h4M136 137h4M203 137h3M269 137h4M73 138h4M136 138h4M203 138h3M269 138h4M73 139h4M136 139h4M203 139h3M269 139h4M73 140h4M136 140h4M203 140h3M269 140h4M73 141h4M136 141h4M203 141h3M269 141h4M73 142h4M136 142h4M203 142h3M269 142h4M73 143h4M136 143h4M203 143h3M269 143h4M73 144h4M136 144h4M203 144h3M269 144h4M73 145h4M136 145h4M203 145h3M269 145h4M73 146h4M136 146h4M203 146h3M269 146h4M73 147h4M133 147h3M203 147h3M269 147h7M73 148h4M133 148h3M203 148h3M269 148h7M73 149h4M133 149h3M203 149h3M269 149h7M73 150h4M133 150h3M203 150h7M273 150h3M73 151h4M133 151h3M203 151h7M273 151h3M73 152h4M133 152h3M203 152h7M273 152h3M73 153h4M133 153h3M203 153h7M273 153h3M73 154h4M133 154h3M203 154h7M273 154h3M73 155h4M133 155h3M203 155h7M273 155h3M73 156h4M133 156h3M203 156h7M273 156h3M73 157h4M133 157h3M206 157h4M273 157h3M73 158h4M133 158h3M206 158h4M273 158h3M73 159h4M133 159h3M206 159h4M273 159h3M73 160h4M133 160h3M206 160h4M273 160h3M73 161h4M133 161h3M206 161h4M273 161h3M73 162h4M133 162h3M206 162h4M273 162h3M73 163h4M133 163h3M206 163h4M273 163h3M73 164h4M133 164h3M206 164h4M273 164h3M73 165h4M133 165h3M206 165h4M273 165h3M73 166h4M133 166h3M206 166h4M273 166h3M73 167h4M133 167h3M206 167h4M273 167h3M73 168h4M129 168h4M206 168h4M273 168h3M73 169h4M129 169h4M206 169h4M273 169h3M73 170h4M129 170h4M206 170h4M273 170h3M73 171h4M129 171h4M210 171h3M273 171h3M73 172h4M129 172h4M210 172h3M273 172h3M73 173h4M129 173h4M210 173h3M273 173h3M73 174h4M129 174h4M210 174h3M273 174h3M73 175h4M129 175h4M210 175h3M273 175h3M73 176h4M129 176h4M210 176h3M273 176h3M73 177h4M129 177h4M210 177h3M273 177h3M73 178h4M129 178h4M210 178h3M273 178h3M73 179h4M129 179h4M210 179h3M273 179h3M73 180h4M129 180h4M210 180h3M273 180h3M73 181h4M129 181h4M210 181h3M273 181h3M73 182h4M129 182h4M213 182h4M273 182h3M73 183h4M129 183h4M213 183h4M273 183h3M73 184h4M129 184h4M213 184h4M273 184h3M73 185h4M129 185h4M213 185h4M273 185h3M73 186h4M129 186h4M213 186h4M273 186h3M73 187h4M129 187h4M213 187h4M273 187h3M73 188h4M129 188h4M213 188h4M273 188h3M73 189h4M129 189h4M217 189h3M273 189h3M73 190h4M129 190h4M217 190h3M273 190h3M73 191h4M129 191h4M217 191h3M273 191h3M73 192h4M126 192h3M217 192h3M273 192h3M73 193h4M126 193h3M217 193h3M273 193h3M73 194h4M126 194h3M217 194h3M273 194h3M73 195h4M126 195h3M217 195h3M273 195h3M70 196h3M126 196h3M220 196h4M273 196h3M70 197h3M126 197h3M220 197h4M273 197h3M70 198h3M126 198h3M220 198h4M273 198h3M70 199h3M126 199h3M220 199h4M273 199h3M70 200h3M126 200h3M220 200h4M273 200h3M70 201h3M126 201h3M220 201h4M273 201h3M70 202h3M126 202h3M220 202h4M273 202h3M70 203h3M126 203h3M220 203h4M273 203h3M70 204h3M126 204h3M220 204h4M273 204h3M70 205h3M126 205h3M220 205h4M273 205h3M70 206h3M122 206h4M224 206h3M273 206h3M70 207h3M122 207h4M224 207h3M273 207h3M70 208h3M122 208h4M224 208h3M273 208h3M70 209h3M122 209h4M224 209h3M273 209h3M70 210h3M122 210h4M224 210h3M269 210h4M70 211h3M122 211h4M224 211h3M269 211h4M70 212h3M122 212h4M224 212h3M269 212h4M70 213h3M119 213h3M227 213h4M269 213h4M70 214h3M119 214h3M227 214h4M269 214h4M70 215h3M119 215h3M227 215h4M269 215h4M70 216h3M119 216h3M227 216h4M269 216h4M70 217h3M119 217h3M227 217h4M269 217h4M70 218h3M119 218h3M227 218h4M269 218h4M70 219h3M119 219h3M227 219h4M269 219h4M70 220h3M119 220h3M227 220h4M269 220h4M70 221h3M119 221h3M227 221h4M269 221h4M70 222h3M119 222h3M227 222h4M269 222h4M70 223h3M119 223h3M227 223h4M269 223h4M70 224h3M115 224h4M231 224h3M266 224h7M70 225h3M115 225h4M231 225h3M266 225h7M70 226h3M115 226h4M231 226h3M266 226h7M70 227h3M115 227h4M231 227h3M266 227h3M70 228h3M115 228h4M231 228h3M266 228h3M70 229h3M115 229h4M231 229h3M266 229h3M70 230h3M115 230h4M231 230h3M266 230h3M66 231h4M115 231h4M231 231h3M266 231h3M66 232h4M115 232h4M231 232h3M266 232h3M66 233h4M115 233h4M231 233h3M266 233h3M66 234h4M115 234h4M231 234h3M266 234h3M66 235h4M115 235h4M231 235h3M266 235h3M66 236h4M115 236h4M231 236h3M266 236h3M66 237h4M115 237h4M231 237h3M266 237h3M66 238h4M112 238h3M231 238h3M266 238h3M66 239h4M112 239h3M231 239h3M266 239h3M66 240h4M112 240h3M231 240h3M266 240h3M63 241h3M112 241h3M231 241h3M266 241h3M63 242h3M112 242h3M231 242h3M266 242h3M63 243h3M112 243h3M231 243h3M266 243h3M63 244h3M112 244h3M231 244h3M266 244h3M63 245h3M112 245h3M231 245h3M269 245h4M63 246h3M112 246h3M231 246h3M269 246h4M63 247h3M112 247h3M231 247h3M269 247h4M63 248h3M112 248h3M227 248h4M269 248h4M63 249h3M112 249h3M227 249h4M269 249h4M63 250h3M112 250h3M227 250h4M269 250h4M63 251h3M112 251h3M227 251h4M269 251h4M59 252h7M112 252h3M227 252h4M269 252h4M59 253h7M112 253h3M227 253h4M269 253h4M59 254h7M112 254h3M227 254h4M269 254h4M59 255h4M115 255h4M224 255h3M269 255h4M59 256h4M115 256h4M224 256h3M269 256h4M59 257h4M115 257h4M224 257h3M269 257h4M59 258h4M115 258h4M224 258h3M269 258h4M59 259h4M115 259h4M224 259h3M269 259h4M59 260h4M115 260h4M224 260h3M269 260h4M59 261h4M115 261h4M224 261h3M269 261h4M56 262h7M115 262h4M220 262h4M273 262h3M56 263h7M115 263h4M220 263h4M273 263h3M56 264h7M115 264h4M220 264h4M273 264h3M56 265h7M115 265h4M220 265h4M273 265h3M56 266h3M119 266h3M220 266h4M273 266h3M56 267h3M119 267h3M220 267h4M273 267h3M56 268h3M119 268h3M220 268h4M273 268h3M56 269h3M122 269h4M217 269h3M273 269h3M56 270h3M122 270h4M217 270h3M273 270h3M56 271h3M122 271h4M217 271h3M273 271h3M56 272h3M122 272h4M217 272h3M273 272h3M52 273h7M126 273h3M213 273h4M273 273h3M52 274h7M126 274h3M213 274h4M273 274h3M52 275h7M126 275h3M213 275h4M273 275h3M52 276h4M129 276h7M171 276h7M210 276h3M276 276h4M52 277h4M129 277h7M171 277h7M210 277h3M276 277h4M52 278h4M129 278h7M171 278h7M210 278h3M276 278h4M52 279h4M129 279h7M171 279h7M210 279h3M276 279h4M49 280h7M136 280h14M164 280h7M178 280h7M199 280h11M276 280h4M49 281h7M136 281h14M164 281h7M178 281h7M199 281h11M276 281h4M49 282h7M136 282h14M164 282h7M178 282h7M199 282h11M276 282h4M49 283h7M150 283h14M185 283h14M280 283h3M49 284h7M150 284h14M185 284h14M280 284h3M49 285h7M150 285h14M185 285h14M280 285h3M49 286h7M150 286h14M185 286h14M280 286h3M280 287h3M280 288h3M280 289h3M280 290h3M280 291h3M280 292h3M280 293h3M280 294h3M280 295h3M280 296h3M280 297h3M280 298h3M280 299h3M280 300h3M280 301h3M280 302h3M280 303h3" />
<path stroke="#c1c7cb" d="M171 42h4M171 43h4M171 44h4M171 52h4M171 53h4M171 54h4M171 55h4M171 63h4M171 64h4M171 65h4M171 84h4M171 85h4M171 86h4M171 94h4M171 95h4M171 96h4M171 97h4M171 105h4M171 106h4M171 107h4M171 115h4M171 116h4M171 117h4M171 118h4M171 126h4M171 127h4M171 128h4M171 136h4M171 137h4M171 138h4M171 139h4M171 147h4M171 148h4M171 149h4" />
<path stroke="#939698" d="M175 42h3M175 43h3M175 44h3M175 52h3M175 53h3M175 54h3M175 55h3M175 63h3M175 64h3M175 65h3M171 73h7M171 74h7M171 75h7M171 76h7M175 84h3M175 85h3M175 86h3M175 94h3M175 95h3M175 96h3M175 97h3M175 105h3M175 106h3M175 107h3M175 115h3M175 116h3M175 117h3M175 118h3M175 126h3M175 127h3M175 128h3M175 136h3M175 137h3M175 138h3M175 139h3M175 147h3M175 148h3M175 149h3" />
<path stroke="#963525" d="M140 45h28M140 46h28M140 47h28M140 48h28M126 49h10M157 49h11M126 50h10M157 50h11M126 51h10M157 51h11M115 52h7M164 52h4M220 52h11M115 53h7M164 53h4M220 53h11M115 54h7M164 54h4M220 54h11M115 55h7M164 55h4M220 55h11M231 56h7M231 57h7M231 58h7M101 59h4M238 59h7M101 60h4M238 60h7M101 61h4M238 61h7M101 62h4M238 62h7M98 63h7M245 63h3M98 64h7M245 64h3M98 65h7M245 65h3M94 66h4M94 67h4M94 68h4M94 69h4M91 70h3M248 70h4M91 71h3M248 71h4M91 72h3M248 72h4M91 73h3M252 73h3M91 74h3M252 74h3M91 75h3M252 75h3M91 76h3M252 76h3M87 77h4M87 78h4M87 79h4M84 84h3M259 84h3M84 85h3M259 85h3M84 86h3M259 86h3M262 94h4M262 95h4M262 96h4M262 97h4M266 101h3M266 102h3M266 103h3M266 104h3" />
<path stroke="#89989d" d="M171 45h4M171 46h4M171 47h4M171 48h4M171 56h4M171 57h4M171 58h4M171 66h4M171 67h4M171 68h4M171 69h4M171 77h4M171 78h4M171 79h4M171 87h4M171 88h4M171 89h4M171 90h4M171 98h4M171 99h4M171 100h4M171 108h4M171 109h4M171 110h4M171 111h4M171 119h4M171 120h4M171 121h4M171 129h4M171 130h4M171 131h4M171 132h4M171 140h4M171 141h4M171 142h4" />
<path stroke="#676e70" d="M175 45h3M175 46h3M175 47h3M175 48h3M175 56h3M175 57h3M175 58h3M175 66h3M175 67h3M175 68h3M175 69h3M175 77h3M175 78h3M175 79h3M175 87h3M175 88h3M175 89h3M175 90h3M175 98h3M175 99h3M175 100h3M175 108h3M175 109h3M175 110h3M175 111h3M175 119h3M175 120h3M175 121h3M175 129h3M175 130h3M175 131h3M175 132h3M175 140h3M175 141h3M175 142h3" />
<path stroke="#973425" d="M182 45h3M182 46h3M182 47h3M182 48h3M182 49h3M182 50h3M182 51h3M182 52h3M182 53h3M182 54h3M182 55h3M182 56h3M182 57h3M182 58h3" />
<path stroke="#9d3425" d="M185 45h4M185 46h4M185 47h4M185 48h4" />
<path stroke="#a53928" d="M189 45h3M189 46h3M189 47h3M189 48h3" />
<path stroke="#953023" d="M192 45h11M192 46h11M192 47h11M192 48h11M199 49h21M199 50h21M199 51h21" />
<path stroke="#c85938" d="M136 49h21M189 49h10M136 50h21M189 50h10M136 51h21M189 51h10M122 52h42M185 52h35M122 53h42M185 53h35M122 54h42M185 54h35M122 55h42M185 55h35M108 56h21M185 56h4M206 56h25M108 57h21M185 57h4M206 57h25M108 58h21M185 58h4M206 58h25M105 59h10M227 59h11M105 60h10M227 60h11M105 61h10M227 61h11M105 62h10M227 62h11M105 63h3M234 63h7M105 64h3M234 64h7M105 65h3M234 65h7M98 66h7M238 66h10M98 67h7M238 67h10M98 68h7M238 68h10M98 69h7M238 69h10M94 70h7M241 70h7M94 71h7M241 71h7M94 72h7M241 72h7M94 73h4M248 73h4M94 74h4M248 74h4M94 75h4M248 75h4M94 76h4M248 76h4M91 77h3M248 77h7M91 78h3M248 78h7M91 79h3M248 79h7M87 80h4M255 80h4M87 81h4M255 81h4M87 82h4M255 82h4M87 83h4M255 83h4M255 84h4M255 85h4M255 86h4M84 87h3M119 87h17M210 87h17M259 87h3M84 88h3M119 88h17M210 88h17M259 88h3M84 89h3M119 89h17M210 89h17M259 89h3M84 90h3M119 90h17M210 90h17M259 90h3M84 91h3M126 91h14M206 91h21M259 91h3M84 92h3M126 92h14M206 92h21M259 92h3M84 93h3M126 93h14M206 93h21M259 93h3M80 94h4M133 94h7M203 94h10M80 95h4M133 95h7M203 95h10M80 96h4M133 96h7M203 96h10M80 97h4M133 97h7M203 97h10M80 98h4M136 98h4M203 98h7M262 98h4M80 99h4M136 99h4M203 99h7M262 99h4M80 100h4M136 100h4M203 100h7M262 100h4M136 101h7M199 101h7M136 102h7M199 102h7M136 103h7M199 103h7M136 104h7M199 104h7M77 105h3M140 105h3M199 105h7M266 105h3M77 106h3M140 106h3M199 106h7M266 106h3M77 107h3M140 107h3M199 107h7M266 107h3M77 108h3M199 108h7M266 108h3M77 109h3M199 109h7M266 109h3M77 110h3M199 110h7M266 110h3M77 111h3M199 111h7M266 111h3M77 112h3M77 113h3M77 114h3M77 115h3M77 116h3M77 117h3M77 118h3M234 119h4M234 120h4M234 121h4M231 122h10M231 123h10M231 124h10M231 125h10M231 126h10M231 127h10M231 128h10M231 129h10M231 130h10M231 131h10M231 132h10M234 133h7M234 134h7M234 135h7M234 136h7M234 137h7M234 138h7M234 139h7M234 140h7M234 141h7M234 142h7M231 143h10M231 144h10M231 145h10M231 146h10M231 147h10M231 148h10M231 149h10M227 150h14M269 150h4M227 151h14M269 151h4M227 152h14M269 152h4M227 153h14M269 153h4M227 154h11M269 154h4M227 155h11M269 155h4M227 156h11M269 156h4M224 157h14M269 157h4M224 158h14M269 158h4M224 159h14M269 159h4M224 160h14M269 160h4M224 161h10M266 161h7M224 162h10M266 162h7M224 163h10M266 163h7M220 164h11M266 164h7M220 165h11M266 165h7M220 166h11M266 166h7M220 167h11M266 167h7M112 168h7M220 168h11M266 168h7M112 169h7M220 169h11M266 169h7M112 170h7M220 170h11M266 170h7M115 171h4M220 171h11M266 171h7M115 172h4M220 172h11M266 172h7M115 173h4M220 173h11M266 173h7M115 174h4M220 174h11M266 174h7M115 175h7M220 175h11M266 175h3M115 176h7M220 176h11M266 176h3M115 177h7M220 177h11M266 177h3M119 178h3M220 178h7M262 178h7M119 179h3M220 179h7M262 179h7M119 180h3M220 180h7M262 180h7M119 181h3M220 181h7M262 181h7M119 182h3M220 182h7M262 182h4M119 183h3M220 183h7M262 183h4M119 184h3M220 184h7M262 184h4M119 185h3M224 185h3M262 185h4M119 186h3M224 186h3M262 186h4M119 187h3M224 187h3M262 187h4M119 188h3M224 188h3M262 188h4M119 189h3M224 189h7M259 189h3M119 190h3M224 190h7M259 190h3M119 191h3M224 191h7M259 191h3M119 192h7M224 192h7M252 192h10M119 193h7M224 193h7M252 193h10M119 194h7M224 194h7M252 194h10M119 195h7M224 195h7M252 195h10M122 196h4M227 196h7M252 196h3M122 197h4M227 197h7M252 197h3M122 198h4M227 198h7M252 198h3M119 199h7M227 199h7M248 199h7M119 200h7M227 200h7M248 200h7M119 201h7M227 201h7M248 201h7M119 202h7M227 202h7M248 202h7M119 203h3M231 203h7M245 203h7M119 204h3M231 204h7M245 204h7M119 205h3M231 205h7M245 205h7M119 206h3M126 206h3M220 206h4M234 206h4M241 206h7M119 207h3M126 207h3M220 207h4M234 207h4M241 207h7M119 208h3M126 208h3M220 208h4M234 208h4M241 208h7M119 209h3M126 209h3M220 209h4M234 209h4M241 209h7M115 210h7M126 210h3M220 210h4M234 210h14M115 211h7M126 211h3M220 211h4M234 211h14M115 212h7M126 212h3M220 212h4M234 212h14M115 213h4M122 213h4M224 213h3M238 213h7M115 214h4M122 214h4M224 214h3M238 214h7M115 215h4M122 215h4M224 215h3M238 215h7M115 216h4M122 216h4M224 216h3M238 216h7M115 217h4M122 217h4M224 217h3M115 218h4M122 218h4M224 218h3M115 219h4M122 219h4M224 219h3M112 220h7M224 220h3M112 221h7M224 221h3M112 222h7M224 222h3M112 223h7M224 223h3M112 224h3M119 224h3M224 224h7M112 225h3M119 225h3M224 225h7M112 226h3M119 226h3M224 226h7M112 227h3M119 227h3M224 227h7M112 228h3M119 228h3M224 228h7M112 229h3M119 229h3M224 229h7M112 230h3M119 230h3M224 230h7M108 231h7M119 231h3M224 231h7M108 232h7M119 232h3M224 232h7M108 233h7M119 233h3M224 233h7M108 234h7M119 234h3M224 234h7M108 235h7M119 235h3M224 235h7M108 236h7M119 236h3M224 236h7M108 237h7M119 237h3M224 237h7M108 238h4M115 238h7M224 238h7M108 239h4M115 239h7M224 239h7M108 240h4M115 240h7M224 240h7M105 241h7M115 241h7M168 241h3M224 241h7M105 242h7M115 242h7M168 242h3M224 242h7M105 243h7M115 243h7M168 243h3M224 243h7M105 244h7M115 244h7M168 244h3M224 244h7M108 245h4M115 245h11M168 245h3M224 245h7M108 246h4M115 246h11M168 246h3M224 246h7M108 247h4M115 247h11M168 247h3M224 247h7M108 248h4M115 248h11M168 248h3M224 248h3M108 249h4M115 249h11M168 249h3M224 249h3M108 250h4M115 250h11M168 250h3M224 250h3M108 251h4M115 251h11M168 251h3M224 251h3M115 252h11M168 252h3M178 252h4M220 252h7M262 252h4M115 253h11M168 253h3M178 253h4M220 253h7M262 253h4M115 254h11M168 254h3M178 254h4M220 254h7M262 254h4M119 255h10M168 255h3M178 255h4M217 255h7M259 255h7M119 256h10M168 256h3M178 256h4M217 256h7M259 256h7M119 257h10M168 257h3M178 257h4M217 257h7M259 257h7M119 258h10M168 258h3M178 258h4M217 258h7M259 258h7M105 259h3M119 259h10M168 259h3M178 259h4M217 259h7M252 259h14M105 260h3M119 260h10M168 260h3M178 260h4M217 260h7M252 260h14M105 261h3M119 261h10M168 261h3M178 261h4M217 261h7M252 261h14M105 262h3M119 262h17M164 262h7M178 262h4M213 262h7M252 262h17M105 263h3M119 263h17M164 263h7M178 263h4M213 263h7M252 263h17M105 264h3M119 264h17M164 264h7M178 264h4M213 264h7M252 264h17M105 265h3M119 265h17M164 265h7M178 265h4M213 265h7M252 265h17M122 266h18M164 266h7M178 266h7M203 266h17M248 266h21M122 267h18M164 267h7M178 267h7M203 267h17M248 267h21M122 268h18M164 268h7M178 268h7M203 268h17M248 268h21M105 269h3M126 269h21M161 269h10M178 269h7M196 269h21M248 269h11M266 269h3M105 270h3M126 270h21M161 270h10M178 270h7M196 270h21M248 270h11M266 270h3M105 271h3M126 271h21M161 271h10M178 271h7M196 271h21M248 271h11M266 271h3M105 272h3M126 272h21M161 272h10M178 272h7M196 272h21M248 272h11M266 272h3M101 273h11M136 273h35M178 273h32M245 273h14M266 273h3M101 274h11M136 274h35M178 274h32M245 274h14M266 274h3M101 275h11M136 275h35M178 275h32M245 275h14M266 275h3M101 276h11M147 276h17M185 276h14M241 276h14M266 276h7M101 277h11M147 277h17M185 277h14M241 277h14M266 277h7M101 278h11M147 278h17M185 278h14M241 278h14M266 278h7M101 279h11M147 279h17M185 279h14M241 279h14M266 279h7M105 280h7M238 280h17M269 280h4M105 281h7M238 281h17M269 281h4M105 282h7M238 282h17M269 282h4M108 283h4M238 283h14M269 283h7M108 284h4M238 284h14M269 284h7M108 285h4M238 285h14M269 285h7M108 286h4M238 286h14M269 286h7M112 287h3M234 287h14M273 287h3M112 288h3M234 288h14M273 288h3M112 289h3M234 289h14M273 289h3M231 290h14M273 290h3M231 291h14M273 291h3M231 292h14M273 292h3M231 293h14M273 293h3M115 294h7M231 294h10M273 294h3M115 295h7M231 295h10M273 295h3M115 296h7M231 296h10M273 296h3M119 297h3M227 297h11M273 297h7M119 298h3M227 298h11M273 298h7M119 299h3M227 299h11M273 299h7M119 300h3M227 300h11M273 300h7M119 301h3M220 301h14M273 301h7M119 302h3M220 302h14M273 302h7M119 303h3M220 303h14M273 303h7M119 304h3M217 304h14M276 304h4M119 305h3M217 305h14M276 305h4M119 306h3M217 306h14M276 306h4M119 307h3M217 307h14M276 307h4M119 308h3M213 308h18M119 309h3M213 309h18M119 310h3M213 310h18M119 311h3M206 311h21M119 312h3M206 312h21M119 313h3M206 313h21M119 314h3M206 314h21M115 315h7M203 315h17M115 316h7M203 316h17M115 317h7M203 317h17M119 318h7M199 318h18M119 319h7M199 319h18M119 320h7M199 320h18M119 321h7M199 321h18M122 322h7M196 322h17M122 323h7M196 323h17M122 324h7M196 324h17M126 325h7M192 325h18M126 326h7M192 326h18M126 327h7M192 327h18M126 328h7M192 328h18M129 329h11M189 329h17M129 330h11M189 330h17M129 331h11M189 331h17M136 332h11M182 332h21M136 333h11M182 333h21M136 334h11M182 334h21M136 335h11M182 335h21M140 336h14M175 336h21M140 337h14M175 337h21M140 338h14M175 338h21M157 339h35M157 340h35M157 341h35M157 342h35M171 343h14M171 344h14M171 345h14" />
<path stroke="#647278" d="M171 49h4M171 50h4M171 51h4M171 59h4M171 60h4M171 61h4M171 62h4M171 70h4M171 71h4M171 72h4M171 80h4M171 81h4M171 82h4M171 83h4M171 91h4M171 92h4M171 93h4M171 101h4M171 102h4M171 103h4M171 104h4M171 112h4M171 113h4M171 114h4M171 122h4M171 123h4M171 124h4M171 125h4M171 133h4M171 134h4M171 135h4M171 143h4M171 144h4M171 145h4M171 146h4" />
<path stroke="#3e4c51" d="M175 49h3M175 50h3M175 51h3M175 59h3M175 60h3M175 61h3M175 62h3M175 70h3M175 71h3M175 72h3M175 80h3M175 81h3M175 82h3M175 83h3M175 91h3M175 92h3M175 93h3M175 101h3M175 102h3M175 103h3M175 104h3M175 112h3M175 113h3M175 114h3M175 122h3M175 123h3M175 124h3M175 125h3M175 133h3M175 134h3M175 135h3M175 143h3M175 144h3M175 145h3M175 146h3" />
<path stroke="#c44a31" d="M185 49h4M185 50h4M185 51h4" />
<path stroke="#933424" d="M105 56h3M105 57h3M105 58h3" />
<path stroke="#e48248" d="M129 56h35M189 56h17M129 57h35M189 57h17M129 58h35M189 58h17M115 59h49M185 59h42M115 60h49M185 60h42M115 61h49M185 61h42M115 62h49M185 62h42M108 63h56M185 63h49M108 64h56M185 64h49M108 65h56M185 65h49M105 66h21M147 66h17M185 66h7M203 66h35M105 67h21M147 67h17M185 67h7M203 67h35M105 68h21M147 68h17M185 68h7M203 68h35M105 69h21M147 69h17M185 69h7M203 69h35M101 70h14M154 70h10M185 70h4M213 70h28M101 71h14M154 71h10M185 71h4M213 71h28M101 72h14M154 72h10M185 72h4M213 72h28M98 73h14M154 73h10M185 73h4M220 73h28M98 74h14M154 74h10M185 74h4M220 74h28M98 75h14M154 75h10M185 75h4M220 75h28M98 76h14M154 76h10M185 76h4M220 76h28M94 77h18M161 77h3M185 77h4M231 77h17M94 78h18M161 78h3M185 78h4M231 78h17M94 79h18M161 79h3M185 79h4M231 79h17M91 80h14M161 80h3M185 80h4M234 80h21M91 81h14M161 81h3M185 81h4M234 81h21M91 82h14M161 82h3M185 82h4M234 82h21M91 83h14M161 83h3M185 83h4M234 83h21M87 84h14M161 84h3M185 84h4M238 84h17M87 85h14M161 85h3M185 85h4M238 85h17M87 86h14M161 86h3M185 86h4M238 86h17M87 87h11M161 87h3M185 87h4M248 87h11M87 88h11M161 88h3M185 88h4M248 88h11M87 89h11M161 89h3M185 89h4M248 89h11M87 90h11M161 90h3M185 90h4M248 90h11M87 91h7M161 91h3M185 91h4M252 91h7M87 92h7M161 92h3M185 92h4M252 92h7M87 93h7M161 93h3M185 93h4M252 93h7M84 94h10M161 94h3M185 94h4M252 94h10M84 95h10M161 95h3M185 95h4M252 95h10M84 96h10M161 96h3M185 96h4M252 96h10M84 97h10M161 97h3M185 97h4M252 97h10M84 98h7M161 98h3M185 98h4M255 98h7M84 99h7M161 99h3M185 99h4M255 99h7M84 100h7M161 100h3M185 100h4M255 100h7M80 101h7M161 101h3M185 101h4M255 101h11M80 102h7M161 102h3M185 102h4M255 102h11M80 103h7M161 103h3M185 103h4M255 103h11M80 104h7M161 104h3M185 104h4M255 104h11M80 105h7M161 105h3M185 105h4M259 105h7M80 106h7M161 106h3M185 106h4M259 106h7M80 107h7M161 107h3M185 107h4M259 107h7M80 108h4M161 108h3M185 108h4M259 108h7M80 109h4M161 109h3M185 109h4M259 109h7M80 110h4M161 110h3M185 110h4M259 110h7M80 111h4M161 111h3M185 111h4M259 111h7M80 112h4M161 112h3M185 112h4M259 112h10M80 113h4M161 113h3M185 113h4M259 113h10M80 114h4M161 114h3M185 114h4M259 114h10M80 115h4M98 115h3M161 115h3M185 115h4M259 115h10M80 116h4M98 116h3M161 116h3M185 116h4M259 116h10M80 117h4M98 117h3M161 117h3M185 117h4M259 117h10M80 118h4M98 118h3M161 118h3M185 118h4M259 118h10M77 119h10M94 119h4M161 119h3M185 119h4M259 119h10M77 120h10M94 120h4M161 120h3M185 120h4M259 120h10M77 121h10M94 121h4M161 121h3M185 121h4M259 121h10M77 122h10M94 122h4M161 122h3M185 122h4M262 122h7M77 123h10M94 123h4M161 123h3M185 123h4M262 123h7M77 124h10M94 124h4M161 124h3M185 124h4M262 124h7M77 125h10M94 125h4M161 125h3M185 125h4M262 125h7M80 126h7M94 126h4M161 126h3M185 126h4M262 126h7M80 127h7M94 127h4M161 127h3M185 127h4M262 127h7M80 128h7M94 128h4M161 128h3M185 128h4M262 128h7M80 129h7M94 129h4M161 129h3M185 129h4M262 129h7M80 130h7M94 130h4M161 130h3M185 130h4M262 130h7M80 131h7M94 131h4M161 131h3M185 131h4M262 131h7M80 132h7M94 132h4M161 132h3M185 132h4M262 132h7M80 133h7M94 133h4M140 133h3M161 133h3M185 133h4M199 133h4M262 133h7M80 134h7M94 134h4M140 134h3M161 134h3M185 134h4M199 134h4M262 134h7M80 135h7M94 135h4M140 135h3M161 135h3M185 135h4M199 135h4M262 135h7M80 136h7M94 136h4M140 136h3M161 136h3M185 136h4M199 136h4M262 136h7M80 137h7M94 137h4M140 137h3M161 137h3M185 137h4M199 137h4M262 137h7M80 138h7M94 138h4M140 138h3M161 138h3M185 138h4M199 138h4M262 138h7M80 139h7M94 139h4M140 139h3M161 139h3M185 139h4M199 139h4M262 139h7M80 140h7M94 140h7M140 140h3M161 140h3M185 140h4M199 140h4M262 140h7M80 141h7M94 141h7M140 141h3M161 141h3M185 141h4M199 141h4M262 141h7M80 142h7M94 142h7M140 142h3M161 142h3M185 142h4M199 142h4M262 142h7M80 143h7M94 143h7M140 143h3M185 143h4M199 143h4M262 143h7M80 144h7M94 144h7M140 144h3M185 144h4M199 144h4M262 144h7M80 145h7M94 145h7M140 145h3M185 145h4M199 145h4M262 145h7M80 146h7M94 146h7M140 146h3M185 146h4M199 146h4M262 146h7M80 147h7M94 147h11M140 147h3M199 147h4M262 147h7M80 148h7M94 148h11M140 148h3M199 148h4M262 148h7M80 149h7M94 149h11M140 149h3M199 149h4M262 149h7M80 150h7M98 150h7M136 150h7M199 150h4M259 150h10M80 151h7M98 151h7M136 151h7M199 151h4M259 151h10M80 152h7M98 152h7M136 152h7M199 152h4M259 152h10M80 153h7M98 153h7M136 153h7M199 153h4M259 153h10M84 154h3M98 154h10M136 154h4M199 154h4M259 154h10M84 155h3M98 155h10M136 155h4M199 155h4M259 155h10M84 156h3M98 156h10M136 156h4M199 156h4M259 156h10M84 157h3M101 157h7M136 157h4M199 157h7M259 157h7M84 158h3M101 158h7M136 158h4M199 158h7M259 158h7M84 159h3M101 159h7M136 159h4M199 159h7M259 159h7M84 160h3M101 160h7M136 160h4M199 160h7M259 160h7M84 161h3M101 161h11M136 161h4M199 161h7M259 161h7M84 162h3M101 162h11M136 162h4M199 162h7M259 162h7M84 163h3M101 163h11M136 163h4M199 163h7M259 163h7M84 164h3M105 164h7M136 164h4M199 164h7M259 164h7M84 165h3M105 165h7M136 165h4M199 165h7M259 165h7M84 166h3M105 166h7M136 166h4M199 166h7M259 166h7M84 167h3M105 167h7M136 167h4M199 167h7M259 167h7M84 168h7M105 168h7M136 168h4M203 168h3M255 168h11M84 169h7M105 169h7M136 169h4M203 169h3M255 169h11M84 170h7M105 170h7M136 170h4M203 170h3M255 170h11M84 171h7M108 171h7M133 171h7M206 171h4M255 171h11M84 172h7M108 172h7M133 172h7M206 172h4M255 172h11M84 173h7M108 173h7M133 173h7M206 173h4M255 173h11M84 174h7M108 174h7M133 174h7M206 174h4M255 174h11M84 175h7M108 175h7M133 175h7M206 175h4M255 175h11M84 176h7M108 176h7M133 176h7M206 176h4M255 176h11M84 177h7M108 177h7M133 177h7M206 177h4M255 177h11M80 178h7M112 178h7M133 178h3M206 178h4M255 178h7M80 179h7M112 179h7M133 179h3M206 179h4M255 179h7M80 180h7M112 180h7M133 180h3M206 180h4M255 180h7M80 181h7M112 181h7M133 181h3M206 181h4M255 181h7M80 182h7M112 182h7M133 182h3M206 182h7M252 182h10M80 183h7M112 183h7M133 183h3M206 183h7M252 183h10M80 184h7M112 184h7M133 184h3M206 184h7M252 184h10M80 185h7M112 185h7M133 185h3M210 185h3M252 185h10M80 186h7M112 186h7M133 186h3M210 186h3M252 186h10M80 187h7M112 187h7M133 187h3M210 187h3M252 187h10M80 188h7M112 188h7M133 188h3M210 188h3M252 188h10M80 189h7M112 189h7M133 189h3M210 189h7M252 189h7M80 190h7M112 190h7M133 190h3M210 190h7M252 190h7M80 191h7M112 191h7M133 191h3M210 191h7M252 191h7M80 192h7M112 192h7M129 192h4M213 192h4M80 193h7M112 193h7M129 193h4M213 193h4M80 194h7M112 194h7M129 194h4M213 194h4M80 195h7M112 195h7M129 195h4M213 195h4M80 196h7M112 196h10M129 196h4M213 196h4M80 197h7M112 197h10M129 197h4M213 197h4M80 198h7M112 198h10M129 198h4M213 198h4M80 199h7M108 199h11M129 199h4M213 199h7M80 200h7M108 200h11M129 200h4M213 200h7M80 201h7M108 201h11M129 201h4M213 201h7M80 202h7M108 202h11M129 202h4M213 202h7M77 203h10M108 203h11M129 203h4M217 203h3M77 204h10M108 204h11M129 204h4M217 204h3M77 205h10M108 205h11M129 205h4M217 205h3M77 206h10M108 206h11M217 206h3M77 207h10M108 207h11M217 207h3M77 208h10M108 208h11M217 208h3M77 209h10M108 209h11M217 209h3M77 210h7M108 210h7M217 210h3M77 211h7M108 211h7M217 211h3M77 212h7M108 212h7M217 212h3M77 213h7M108 213h7M126 213h7M217 213h7M77 214h7M108 214h7M126 214h7M217 214h7M77 215h7M108 215h7M126 215h7M217 215h7M77 216h7M108 216h7M126 216h7M217 216h7M77 217h7M108 217h7M126 217h7M217 217h7M77 218h7M108 218h7M126 218h7M217 218h7M77 219h7M108 219h7M126 219h7M217 219h7M77 220h7M105 220h7M122 220h11M217 220h7M77 221h7M105 221h7M122 221h11M217 221h7M77 222h7M105 222h7M122 222h11M217 222h7M77 223h7M105 223h7M122 223h11M217 223h7M77 224h7M105 224h7M122 224h11M217 224h7M77 225h7M105 225h7M122 225h11M217 225h7M77 226h7M105 226h7M122 226h11M217 226h7M77 227h3M105 227h7M122 227h11M217 227h7M77 228h3M105 228h7M122 228h11M217 228h7M77 229h3M105 229h7M122 229h11M217 229h7M77 230h3M105 230h7M122 230h11M217 230h7M73 231h7M101 231h7M122 231h7M217 231h7M73 232h7M101 232h7M122 232h7M217 232h7M73 233h7M101 233h7M122 233h7M217 233h7M73 234h7M98 234h10M122 234h11M217 234h7M73 235h7M98 235h10M122 235h11M217 235h7M73 236h7M98 236h10M122 236h11M217 236h7M73 237h7M98 237h10M122 237h11M217 237h7M73 238h7M98 238h10M122 238h11M217 238h7M73 239h7M98 239h10M122 239h11M217 239h7M73 240h7M98 240h10M122 240h11M217 240h7M73 241h7M94 241h11M122 241h11M217 241h7M73 242h7M94 242h11M122 242h11M217 242h7M73 243h7M94 243h11M122 243h11M217 243h7M73 244h7M94 244h11M122 244h11M217 244h7M73 245h7M94 245h11M126 245h10M213 245h11M73 246h7M94 246h11M126 246h10M213 246h11M73 247h7M94 247h11M126 247h10M213 247h11M73 248h4M91 248h14M126 248h10M213 248h11M73 249h4M91 249h14M126 249h10M213 249h11M73 250h4M91 250h14M126 250h10M213 250h11M73 251h4M91 251h14M126 251h10M213 251h11M70 252h7M87 252h14M126 252h14M210 252h10M70 253h7M87 253h14M126 253h14M210 253h10M70 254h7M87 254h14M126 254h14M210 254h10M70 255h3M87 255h14M129 255h14M206 255h11M70 256h3M87 256h14M129 256h14M206 256h11M70 257h3M87 257h14M129 257h14M206 257h11M70 258h3M87 258h14M129 258h14M206 258h11M70 259h3M87 259h11M133 259h17M157 259h7M185 259h7M196 259h21M70 260h3M87 260h11M133 260h17M157 260h7M185 260h7M196 260h21M70 261h3M87 261h11M133 261h17M157 261h7M185 261h7M196 261h21M66 262h7M84 262h10M136 262h28M185 262h28M66 263h7M84 263h10M136 263h28M185 263h28M66 264h7M84 264h10M136 264h28M185 264h28M66 265h7M84 265h10M136 265h28M185 265h28M66 266h7M84 266h10M143 266h21M185 266h18M66 267h7M84 267h10M143 267h21M185 267h18M66 268h7M84 268h10M143 268h21M185 268h18M66 269h4M84 269h10M185 269h11M66 270h4M84 270h10M185 270h11M66 271h4M84 271h10M185 271h11M66 272h4M84 272h10M185 272h11M63 273h7M84 273h7M63 274h7M84 274h7M63 275h7M84 275h7M63 276h7M84 276h7M63 277h7M84 277h7M63 278h7M84 278h7M63 279h7M84 279h7M63 280h7M84 280h10M63 281h7M84 281h10M63 282h7M84 282h10M63 283h7M84 283h10M63 284h7M84 284h10M63 285h7M84 285h10M63 286h7M84 286h10M63 287h7M87 287h7M63 288h7M87 288h7M63 289h7M87 289h7M59 290h11M87 290h11M59 291h11M87 291h11M59 292h11M87 292h11M59 293h11M87 293h11M59 294h11M87 294h11M59 295h11M87 295h11M59 296h11M87 296h11M59 297h11M91 297h14M59 298h11M91 298h14M59 299h11M91 299h14M59 300h11M91 300h14M63 301h7M91 301h14M63 302h7M91 302h14M63 303h7M91 303h14M66 304h4M94 304h11M255 304h4M66 305h4M94 305h11M255 305h4M66 306h4M94 306h11M255 306h4M66 307h4M94 307h11M255 307h4M94 308h14M255 308h7M94 309h14M255 309h7M94 310h14M255 310h7M98 311h10M248 311h11M98 312h10M248 312h11M98 313h10M248 313h11M98 314h10M248 314h11M98 315h14M245 315h14M98 316h14M245 316h14M98 317h14M245 317h14M101 318h11M241 318h14M101 319h11M241 319h14M101 320h11M241 320h14M101 321h11M241 321h14M105 322h10M234 322h18M105 323h10M234 323h18M105 324h10M234 324h18M105 325h10M231 325h17M105 326h10M231 326h17M105 327h10M231 327h17M105 328h10M231 328h17M108 329h11M224 329h21M108 330h11M224 330h21M108 331h11M224 331h21M108 332h11M133 332h3M220 332h18M108 333h11M133 333h3M220 333h18M108 334h11M133 334h3M220 334h18M108 335h11M133 335h3M220 335h18M112 336h10M217 336h14M112 337h10M217 337h14M112 338h10M217 338h14M122 339h4M213 339h7M122 340h4M213 340h7M122 341h4M213 341h7M122 342h4M213 342h7M210 343h3M210 344h3M210 345h3" />
<path stroke="#9e3f2c" d="M164 56h4M164 57h4M164 58h4M164 59h4M164 60h4M164 61h4M164 62h4M164 63h4M164 64h4M164 65h4M164 66h4M164 67h4M164 68h4M164 69h4M164 70h4M164 71h4M164 72h4" />
<path stroke="#2f363d" d="M168 56h3M168 57h3M168 58h3M168 59h3M178 59h4M168 60h3M178 60h4M168 61h3M178 61h4M168 62h3M178 62h4M168 63h3M178 63h4M168 64h3M178 64h4M168 65h3M178 65h4M168 66h3M178 66h4M168 67h3M178 67h4M168 68h3M178 68h4M168 69h3M178 69h4M168 70h3M178 70h4M168 71h3M178 71h4M168 72h3M178 72h4M168 73h3M178 73h4M168 74h3M178 74h4M168 75h3M178 75h4M168 76h3M178 76h4M168 77h3M168 78h3M168 79h3M168 80h3M168 81h3M168 82h3M168 83h3M168 84h3M168 85h3M168 86h3M168 87h3M168 88h3M168 89h3M168 90h3M168 91h3M168 92h3M168 93h3M168 94h3M168 95h3M168 96h3M168 97h3M168 98h3M168 99h3M168 100h3M168 101h3M168 102h3M168 103h3M168 104h3" />
<path stroke="#142427" d="M94 59h4M94 60h4M94 61h4M94 62h4M91 63h3M91 64h3M91 65h3M87 66h4M87 67h4M87 68h4M87 69h4" />
<path stroke="#9c3b2a" d="M182 59h3M182 60h3M182 61h3M182 62h3" />
<path stroke="#9e3a29" d="M182 63h3M182 64h3M182 65h3" />
<path stroke="#bf5434" d="M241 63h4M241 64h4M241 65h4" />
<path stroke="#213135" d="M259 63h3M259 64h3M259 65h3" />
<path stroke="#ea8d4c" d="M126 66h21M192 66h11M126 67h21M192 67h11M126 68h21M192 68h11M126 69h21M192 69h11M115 70h39M189 70h24M115 71h39M189 71h24M115 72h39M189 72h24M112 73h42M189 73h31M112 74h42M189 74h31M112 75h42M189 75h31M112 76h42M189 76h31M112 77h49M189 77h42M112 78h49M189 78h42M112 79h49M189 79h42M105 80h56M189 80h45M105 81h56M189 81h45M105 82h56M189 82h45M105 83h56M189 83h45M101 84h60M189 84h49M101 85h60M189 85h49M101 86h60M189 86h49M98 87h21M136 87h25M189 87h21M227 87h21M98 88h21M136 88h25M189 88h21M227 88h21M98 89h21M136 89h25M189 89h21M227 89h21M98 90h21M136 90h25M189 90h21M227 90h21M94 91h18M140 91h21M189 91h17M227 91h25M94 92h18M140 92h21M189 92h17M227 92h25M94 93h18M140 93h21M189 93h17M227 93h25M94 94h14M140 94h21M189 94h14M231 94h21M94 95h14M140 95h21M189 95h14M231 95h21M94 96h14M140 96h21M189 96h14M231 96h21M94 97h14M140 97h21M189 97h14M231 97h21M91 98h14M140 98h21M189 98h14M231 98h24M91 99h14M140 99h21M189 99h14M231 99h24M91 100h14M140 100h21M189 100h14M231 100h24M87 101h18M143 101h18M189 101h10M234 101h21M87 102h18M143 102h18M189 102h10M234 102h21M87 103h18M143 103h18M189 103h10M234 103h21M87 104h18M143 104h18M189 104h10M234 104h21M87 105h14M136 105h4M143 105h18M189 105h10M238 105h21M87 106h14M136 106h4M143 106h18M189 106h10M238 106h21M87 107h14M136 107h4M143 107h18M189 107h10M238 107h21M84 108h21M136 108h25M189 108h10M241 108h18M84 109h21M136 109h25M189 109h10M241 109h18M84 110h21M136 110h25M189 110h10M241 110h18M84 111h21M136 111h25M189 111h10M241 111h18M84 112h17M136 112h25M189 112h17M238 112h21M84 113h17M136 113h25M189 113h17M238 113h21M84 114h17M136 114h25M189 114h17M238 114h21M84 115h14M140 115h21M189 115h21M234 115h25M84 116h14M140 116h21M189 116h21M234 116h25M84 117h14M140 117h21M189 117h21M234 117h25M84 118h14M140 118h21M189 118h21M234 118h25M87 119h7M140 119h21M189 119h21M238 119h21M87 120h7M140 120h21M189 120h21M238 120h21M87 121h7M140 121h21M189 121h21M238 121h21M87 122h7M143 122h18M189 122h17M241 122h21M87 123h7M143 123h18M189 123h17M241 123h21M87 124h7M143 124h18M189 124h17M241 124h21M87 125h7M143 125h18M189 125h17M241 125h21M87 126h7M143 126h18M189 126h14M241 126h21M87 127h7M143 127h18M189 127h14M241 127h21M87 128h7M143 128h18M189 128h14M241 128h21M87 129h7M143 129h18M189 129h14M241 129h21M87 130h7M143 130h18M189 130h14M241 130h21M87 131h7M143 131h18M189 131h14M241 131h21M87 132h7M143 132h18M189 132h14M241 132h21M87 133h7M143 133h18M189 133h10M241 133h21M87 134h7M143 134h18M189 134h10M241 134h21M87 135h7M143 135h18M189 135h10M241 135h21M87 136h7M143 136h18M189 136h10M241 136h21M87 137h7M143 137h18M189 137h10M241 137h21M87 138h7M143 138h18M189 138h10M241 138h21M87 139h7M143 139h18M189 139h10M241 139h21M87 140h7M143 140h18M189 140h10M241 140h21M87 141h7M143 141h18M189 141h10M241 141h21M87 142h7M143 142h18M189 142h10M241 142h21M87 143h7M143 143h21M189 143h10M241 143h21M87 144h7M143 144h21M189 144h10M241 144h21M87 145h7M143 145h21M189 145h10M241 145h21M87 146h7M143 146h21M189 146h10M241 146h21M87 147h7M136 147h4M143 147h21M185 147h14M241 147h21M87 148h7M136 148h4M143 148h21M185 148h14M241 148h21M87 149h7M136 149h4M143 149h21M185 149h14M241 149h21M87 150h11M143 150h21M185 150h14M241 150h18M87 151h11M143 151h21M185 151h14M241 151h18M87 152h11M143 152h21M185 152h14M241 152h18M87 153h11M143 153h21M185 153h14M241 153h18M87 154h11M140 154h28M182 154h17M238 154h21M87 155h11M140 155h28M182 155h17M238 155h21M87 156h11M140 156h28M182 156h17M238 156h21M87 157h14M140 157h28M182 157h17M238 157h21M266 157h3M87 158h14M140 158h28M182 158h17M238 158h21M266 158h3M87 159h14M140 159h28M182 159h17M238 159h21M266 159h3M87 160h14M140 160h28M182 160h17M238 160h21M266 160h3M87 161h14M140 161h31M178 161h21M234 161h25M87 162h14M140 162h31M178 162h21M234 162h25M87 163h14M140 163h31M178 163h21M234 163h25M87 164h18M140 164h31M178 164h21M231 164h28M87 165h18M140 165h31M178 165h21M231 165h28M87 166h18M140 166h31M178 166h21M231 166h28M87 167h18M140 167h31M178 167h21M231 167h28M91 168h14M133 168h3M140 168h31M178 168h25M231 168h24M91 169h14M133 169h3M140 169h31M178 169h25M231 169h24M91 170h14M133 170h3M140 170h31M178 170h25M231 170h24M91 171h17M140 171h31M178 171h28M231 171h24M91 172h17M140 172h31M178 172h28M231 172h24M91 173h17M140 173h31M178 173h28M231 173h24M91 174h17M140 174h31M178 174h28M231 174h24M91 175h17M140 175h31M178 175h28M231 175h24M91 176h17M140 176h31M178 176h28M231 176h24M91 177h17M140 177h31M178 177h28M231 177h24M87 178h25M136 178h35M178 178h28M227 178h28M87 179h25M136 179h35M178 179h28M227 179h28M87 180h25M136 180h35M178 180h28M227 180h28M87 181h25M136 181h35M178 181h28M227 181h28M87 182h25M136 182h35M178 182h28M227 182h25M87 183h25M136 183h35M178 183h28M227 183h25M87 184h25M136 184h35M178 184h28M227 184h25M87 185h25M136 185h35M178 185h32M227 185h25M87 186h25M136 186h35M178 186h32M227 186h25M87 187h25M136 187h35M178 187h32M227 187h25M87 188h25M136 188h35M178 188h32M227 188h25M87 189h25M136 189h35M178 189h32M231 189h21M87 190h25M136 190h35M178 190h32M231 190h21M87 191h25M136 191h35M178 191h32M231 191h21M87 192h25M133 192h38M178 192h35M231 192h21M87 193h25M133 193h38M178 193h35M231 193h21M87 194h25M133 194h38M178 194h35M231 194h21M87 195h25M133 195h38M178 195h35M231 195h21M87 196h25M133 196h38M178 196h35M217 196h3M234 196h18M87 197h25M133 197h38M178 197h35M217 197h3M234 197h18M87 198h25M133 198h38M178 198h35M217 198h3M234 198h18M87 199h21M133 199h38M178 199h35M234 199h14M87 200h21M133 200h38M178 200h35M234 200h14M87 201h21M133 201h38M178 201h35M234 201h14M87 202h21M133 202h38M178 202h35M234 202h14M87 203h21M133 203h38M178 203h39M238 203h7M87 204h21M133 204h38M178 204h39M238 204h7M87 205h21M133 205h38M178 205h39M238 205h7M87 206h21M129 206h42M178 206h39M238 206h3M87 207h21M129 207h42M178 207h39M238 207h3M87 208h21M129 208h42M178 208h39M238 208h3M87 209h21M129 209h42M178 209h39M238 209h3M84 210h24M129 210h42M178 210h39M84 211h24M129 211h42M178 211h39M84 212h24M129 212h42M178 212h39M84 213h24M133 213h38M178 213h39M84 214h24M133 214h38M178 214h39M84 215h24M133 215h38M178 215h39M84 216h24M133 216h38M178 216h39M84 217h24M133 217h38M178 217h35M84 218h24M133 218h38M178 218h35M84 219h24M133 219h38M178 219h35M84 220h21M133 220h38M178 220h39M84 221h21M133 221h38M178 221h39M84 222h21M133 222h38M178 222h39M84 223h21M133 223h38M178 223h39M84 224h21M133 224h38M178 224h39M84 225h21M133 225h38M178 225h39M84 226h21M133 226h38M178 226h39M80 227h25M133 227h38M178 227h39M80 228h25M133 228h38M178 228h39M80 229h25M133 229h38M178 229h39M80 230h25M133 230h38M178 230h39M80 231h21M129 231h42M178 231h39M80 232h21M129 232h42M178 232h39M80 233h21M129 233h42M178 233h39M80 234h18M133 234h38M178 234h39M80 235h18M133 235h38M178 235h39M80 236h18M133 236h38M178 236h39M80 237h18M133 237h38M178 237h39M80 238h18M133 238h38M178 238h39M80 239h18M133 239h38M178 239h39M80 240h18M133 240h38M178 240h39M80 241h14M133 241h35M178 241h39M80 242h14M133 242h35M178 242h39M80 243h14M133 243h35M178 243h39M80 244h14M133 244h35M178 244h39M80 245h14M136 245h32M178 245h35M80 246h14M136 246h32M178 246h35M80 247h14M136 247h32M178 247h35M77 248h14M136 248h32M178 248h35M77 249h14M136 249h32M178 249h35M77 250h14M136 250h32M178 250h35M77 251h14M136 251h32M178 251h35M77 252h10M140 252h28M182 252h28M77 253h10M140 253h28M182 253h28M77 254h10M140 254h28M182 254h28M73 255h14M143 255h25M182 255h24M73 256h14M143 256h25M182 256h24M73 257h14M143 257h25M182 257h24M73 258h14M143 258h25M182 258h24M73 259h14M129 259h4M150 259h7M164 259h4M182 259h3M192 259h4M73 260h14M129 260h4M150 260h7M164 260h4M182 260h3M192 260h4M73 261h14M129 261h4M150 261h7M164 261h4M182 261h3M192 261h4M73 262h11M182 262h3M73 263h11M182 263h3M73 264h11M182 264h3M73 265h11M182 265h3M73 266h11M140 266h3M73 267h11M140 267h3M73 268h11M140 268h3M70 269h14M147 269h14M70 270h14M147 270h14M70 271h14M147 271h14M70 272h14M147 272h14M70 273h14M70 274h14M70 275h14M70 276h14M70 277h14M70 278h14M70 279h14M70 280h14M70 281h14M70 282h14M70 283h14M70 284h14M70 285h14M70 286h14M70 287h17M70 288h17M70 289h17M70 290h17M70 291h17M70 292h17M70 293h17M70 294h17M70 295h17M70 296h17M70 297h21M70 298h21M70 299h21M70 300h21M70 301h21M70 302h21M70 303h21M70 304h24M70 305h24M70 306h24M70 307h24M70 308h24M70 309h24M70 310h24M73 311h25M73 312h25M73 313h25M73 314h25M77 315h21M77 316h21M77 317h21M84 318h17M84 319h17M84 320h17M84 321h17M87 322h18M87 323h18M87 324h18M94 325h11M94 326h11M94 327h11M94 328h11M98 329h10M98 330h10M98 331h10M105 332h3M105 333h3M105 334h3M105 335h3" />
<path stroke="#b14e35" d="M182 66h3M182 67h3M182 68h3M182 69h3M182 70h3M182 71h3M182 72h3M182 73h3M182 74h3M182 75h3M182 76h3M182 77h3M182 78h3M182 79h3M182 80h3M182 81h3M182 82h3M182 83h3" />
<path stroke="#943425" d="M248 66h4M248 67h4M248 68h4M248 69h4M77 101h3M77 102h3M77 103h3M77 104h3" />
<path stroke="#152427" d="M84 73h3M84 74h3M84 75h3M84 76h3" />
<path stroke="#a95037" d="M164 73h4M164 74h4M164 75h4M164 76h4M164 77h4M164 78h4M164 79h4M164 80h4M164 81h4M164 82h4M164 83h4M164 84h4M182 84h3M164 85h4M182 85h3M164 86h4M182 86h3M164 87h4M164 88h4M164 89h4M164 90h4M164 91h4M164 92h4M164 93h4M164 94h4M164 95h4M164 96h4M164 97h4" />
<path stroke="#2e353d" d="M178 77h4M178 78h4M178 79h4M178 80h4M178 81h4M178 82h4M178 83h4M178 84h4M178 85h4M178 86h4M178 87h4M178 88h4M178 89h4M178 90h4M178 91h4M178 92h4M178 93h4M178 94h4M178 95h4M178 96h4M178 97h4M178 98h4M178 99h4M178 100h4M178 101h4M178 102h4M178 103h4M178 104h4M178 105h4M178 106h4M178 107h4" />
<path stroke="#953525" d="M255 77h4M255 78h4M255 79h4" />
<path stroke="#172629" d="M80 80h4M80 81h4M80 82h4M80 83h4" />
<path stroke="#6b95b0" d="M66 87h4M276 87h4M66 88h4M276 88h4M66 89h4M276 89h4M66 90h4M276 90h4M63 91h10M276 91h7M63 92h10M276 92h7M63 93h10M276 93h7M59 94h14M280 94h7M59 95h14M280 95h7M59 96h14M280 96h7M59 97h14M280 97h7M56 98h14M283 98h7M56 99h14M283 99h7M56 100h14M283 100h7M52 101h14M287 101h7M52 102h14M287 102h7M52 103h14M287 103h7M52 104h14M287 104h7M52 105h11M290 105h4M52 106h11M290 106h4M52 107h11M290 107h4M49 108h10M290 108h7M49 109h10M290 109h7M49 110h10M290 110h7M49 111h10M290 111h7M45 112h11M294 112h7M45 113h11M294 113h7M45 114h11M294 114h7M45 115h11M297 115h4M45 116h11M297 116h4M45 117h11M297 117h4M45 118h11M297 118h4M42 119h10M297 119h7M42 120h10M297 120h7M42 121h10M297 121h7M38 122h11M301 122h7M38 123h11M301 123h7M38 124h11M301 124h7M38 125h11M301 125h7M38 126h11M301 126h7M38 127h11M301 127h7M38 128h11M301 128h7M35 129h10M304 129h7M35 130h10M304 130h7M35 131h10M304 131h7M35 132h10M304 132h7M35 133h10M304 133h7M35 134h10M304 134h7M35 135h10M304 135h7M31 136h11M308 136h7M31 137h11M308 137h7M31 138h11M308 138h7M31 139h11M308 139h7M31 140h11M308 140h7M31 141h11M308 141h7M31 142h11M308 142h7M31 143h7M311 143h4M31 144h7M311 144h4M31 145h7M311 145h4M31 146h7M311 146h4M28 147h10M311 147h7M28 148h10M311 148h7M28 149h10M311 149h7M28 150h7M311 150h7M28 151h7M311 151h7M28 152h7M311 152h7M28 153h7M311 153h7M28 154h7M315 154h3M28 155h7M315 155h3M28 156h7M315 156h3M24 157h11M315 157h7M24 158h11M315 158h7M24 159h11M315 159h7M24 160h11M315 160h7M24 161h7M315 161h7M24 162h7M315 162h7M24 163h7M315 163h7M24 164h7M315 164h7M24 165h7M315 165h7M24 166h7M315 166h7M24 167h7M315 167h7M24 168h7M315 168h7M24 169h7M315 169h7M24 170h7M315 170h7M24 171h7M318 171h4M24 172h7M318 172h4M24 173h7M318 173h4M24 174h7M318 174h4M21 175h10M318 175h7M21 176h10M318 176h7M21 177h10M318 177h7M21 178h7M318 178h7M21 179h7M318 179h7M21 180h7M318 180h7M21 181h7M318 181h7M21 182h7M318 182h7M21 183h7M318 183h7M21 184h7M318 184h7M21 185h7M318 185h7M21 186h7M318 186h7M21 187h7M318 187h7M21 188h7M318 188h7M21 189h7M318 189h7M21 190h7M318 190h7M21 191h7M318 191h7M21 192h7M318 192h7M21 193h7M318 193h7M21 194h7M318 194h7M21 195h7M318 195h7M21 196h7M318 196h7M21 197h7M318 197h7M21 198h7M318 198h7M21 199h7M318 199h7M21 200h7M318 200h7M21 201h7M318 201h7M21 202h7M318 202h7M21 203h7M318 203h7M21 204h7M318 204h7M21 205h7M318 205h7M21 206h7M318 206h7M21 207h7M318 207h7M21 208h7M318 208h7M21 209h7M318 209h7M21 210h7M318 210h7M21 211h7M318 211h7M21 212h7M318 212h7M21 213h7M315 213h10M21 214h7M315 214h10M21 215h7M315 215h10M21 216h7M315 216h10M21 217h7M315 217h10M21 218h7M315 218h10M21 219h7M315 219h10M24 220h7M315 220h7M24 221h7M315 221h7M24 222h7M315 222h7M24 223h7M315 223h7M24 224h7M315 224h7M24 225h7M315 225h7M24 226h7M315 226h7M24 227h7M315 227h7M24 228h7M315 228h7M24 229h7M315 229h7M24 230h7M315 230h7M24 231h7M311 231h11M24 232h7M311 232h11M24 233h7M311 233h11M24 234h7M311 234h11M24 235h7M311 235h11M24 236h7M311 236h11M24 237h7M311 237h11M28 238h7M311 238h7M28 239h7M311 239h7M28 240h7M311 240h7M28 241h7M308 241h10M28 242h7M308 242h10M28 243h7M308 243h10M28 244h7M308 244h10M28 245h7M308 245h10M28 246h7M308 246h10M28 247h7M308 247h10M31 248h7M304 248h11M31 249h7M304 249h11M31 250h7M304 250h11M31 251h7M304 251h11M31 252h7M304 252h11M31 253h7M304 253h11M31 254h7M304 254h11M31 255h11M301 255h14M31 256h11M301 256h14M31 257h11M301 257h14M31 258h11M301 258h14M35 259h7M301 259h10M35 260h7M301 260h10M35 261h7M301 261h10M35 262h10M297 262h14M35 263h10M297 263h14M35 264h10M297 264h14M35 265h10M297 265h14M38 266h7M297 266h11M38 267h7M297 267h11M38 268h7M297 268h11M38 269h11M294 269h14M38 270h11M294 270h14M38 271h11M294 271h14M38 272h11M294 272h14M42 273h7M290 273h14M42 274h7M290 274h14M42 275h7M290 275h14M45 276h7M290 276h11M45 277h7M290 277h11M45 278h7M290 278h11M45 279h7M290 279h11M45 280h4M287 280h14M45 281h4M287 281h14M45 282h4M287 282h14M283 283h14M283 284h14M283 285h14M283 286h14M283 287h11M283 288h11M283 289h11M283 290h11M283 291h11M283 292h11M283 293h11M283 294h7M283 295h7M283 296h7M283 297h4M283 298h4M283 299h4M283 300h4" />
<path stroke="#9e5339" d="M182 87h3M182 88h3M182 89h3M182 90h3M182 91h3M182 92h3M182 93h3M182 94h3M182 95h3M182 96h3M182 97h3M164 98h4M182 98h3M164 99h4M182 99h3M164 100h4M182 100h3M164 101h4M182 101h3M164 102h4M182 102h3M164 103h4M182 103h3M164 104h4M182 104h3M164 105h4M182 105h3M164 106h4M182 106h3M164 107h4M182 107h3M164 108h4M164 109h4M164 110h4M164 111h4" />
<path stroke="#080a0a" d="M73 91h4M73 92h4M73 93h4" />
<path stroke="#223134" d="M77 91h3M77 92h3M77 93h3" />
<path stroke="#4c1b15" d="M80 91h4M80 92h4M80 93h4" />
<path stroke="#b24830" d="M112 91h14M112 92h14M112 93h14M108 94h7M126 94h7M213 94h18M108 95h7M126 95h7M213 95h18M108 96h7M126 96h7M213 96h18M108 97h7M126 97h7M213 97h18M105 98h3M133 98h3M210 98h3M105 99h3M133 99h3M210 99h3M105 100h3M133 100h3M210 100h3M206 101h4M206 102h4M206 103h4M206 104h4M101 115h4M136 115h4M101 116h4M136 116h4M101 117h4M136 117h4M101 118h4M136 118h4M98 119h10M112 119h3M98 120h10M112 120h3M98 121h10M112 121h3M98 122h17M122 122h7M98 123h17M122 123h7M98 124h17M122 124h7M98 125h17M122 125h7M98 126h24M129 126h4M220 126h4M227 126h4M98 127h24M129 127h4M220 127h4M227 127h4M98 128h24M129 128h4M220 128h4M227 128h4M98 129h28M129 129h4M217 129h3M224 129h7M98 130h28M129 130h4M217 130h3M224 130h7M98 131h28M129 131h4M217 131h3M224 131h7M98 132h28M129 132h4M217 132h3M224 132h7M98 133h31M213 133h4M220 133h14M98 134h31M213 134h4M220 134h14M98 135h31M213 135h4M220 135h14M98 136h35M213 136h4M220 136h14M98 137h35M213 137h4M220 137h14M98 138h35M213 138h4M220 138h14M98 139h35M213 139h4M220 139h14M101 140h28M133 140h3M210 140h3M217 140h17M101 141h28M133 141h3M210 141h3M217 141h17M101 142h28M133 142h3M210 142h3M217 142h17M101 143h35M213 143h18M101 144h35M213 144h18M101 145h35M213 145h18M101 146h35M213 146h18M105 147h24M206 147h25M105 148h24M206 148h25M105 149h24M206 149h25M105 150h28M213 150h14M105 151h28M213 151h14M105 152h28M213 152h14M105 153h28M213 153h14M108 154h25M210 154h17M108 155h25M210 155h17M108 156h25M210 156h17M108 157h25M210 157h14M108 158h25M210 158h14M108 159h25M210 159h14M108 160h25M210 160h14M112 161h21M210 161h14M112 162h21M210 162h14M112 163h21M210 163h14M112 164h21M210 164h10M112 165h21M210 165h10M112 166h21M210 166h10M112 167h21M210 167h10M119 168h10M210 168h10M119 169h10M210 169h10M119 170h10M210 170h10M119 171h10M213 171h7M119 172h10M213 172h7M119 173h10M213 173h7M119 174h10M213 174h7M122 175h7M213 175h7M269 175h4M122 176h7M213 176h7M269 176h4M122 177h7M213 177h7M269 177h4M122 178h7M213 178h7M269 178h4M122 179h7M213 179h7M269 179h4M122 180h7M213 180h7M269 180h4M122 181h7M213 181h7M269 181h4M122 182h7M217 182h3M266 182h7M122 183h7M217 183h3M266 183h7M122 184h7M217 184h3M266 184h7M122 185h7M217 185h7M266 185h7M122 186h7M217 186h7M266 186h7M122 187h7M217 187h7M266 187h7M122 188h7M217 188h7M266 188h7M122 189h7M220 189h4M262 189h11M122 190h7M220 190h4M262 190h11M122 191h7M220 191h4M262 191h11M220 192h4M262 192h7M220 193h4M262 193h7M220 194h4M262 194h7M220 195h4M262 195h7M224 196h3M255 196h14M224 197h3M255 197h14M224 198h3M255 198h14M224 199h3M255 199h14M224 200h3M255 200h14M224 201h3M255 201h14M224 202h3M255 202h14M122 203h4M224 203h7M252 203h17M122 204h4M224 204h7M252 204h17M122 205h4M224 205h7M252 205h17M227 206h7M248 206h21M227 207h7M248 207h21M227 208h7M248 208h21M227 209h7M248 209h21M231 210h3M248 210h18M231 211h3M248 211h18M231 212h3M248 212h18M231 213h7M245 213h21M231 214h7M245 214h21M231 215h7M245 215h21M231 216h7M245 216h21M234 217h32M234 218h32M234 219h32M238 220h24M238 221h24M238 222h24M238 223h24M238 224h24M238 225h24M238 226h24M238 227h24M238 228h24M238 229h24M238 230h24M238 231h21M238 232h21M238 233h21M238 234h21M238 235h21M238 236h21M238 237h21M238 238h21M238 239h21M238 240h21M238 241h21M262 241h4M238 242h21M262 242h4M238 243h21M262 243h4M238 244h21M262 244h4M238 245h17M262 245h7M238 246h17M262 246h7M238 247h17M262 247h7M238 248h17M259 248h10M238 249h17M259 249h10M238 250h17M259 250h10M238 251h17M259 251h10M108 252h4M234 252h18M255 252h7M266 252h3M108 253h4M234 253h18M255 253h7M266 253h3M108 254h4M234 254h18M255 254h7M266 254h3M108 255h4M234 255h14M255 255h4M266 255h3M108 256h4M234 256h14M255 256h4M266 256h3M108 257h4M234 257h14M255 257h4M266 257h3M108 258h4M234 258h14M255 258h4M266 258h3M108 259h4M231 259h3M238 259h10M266 259h3M108 260h4M231 260h3M238 260h10M266 260h3M108 261h4M231 261h3M238 261h10M266 261h3M108 262h4M231 262h3M238 262h7M269 262h4M108 263h4M231 263h3M238 263h7M269 263h4M108 264h4M231 264h3M238 264h7M269 264h4M108 265h4M231 265h3M238 265h7M269 265h4M108 266h7M227 266h4M234 266h11M269 266h4M108 267h7M227 267h4M234 267h11M269 267h4M108 268h7M227 268h4M234 268h11M269 268h4M112 269h3M227 269h4M234 269h7M245 269h3M269 269h4M112 270h3M227 270h4M234 270h7M245 270h3M269 270h4M112 271h3M227 271h4M234 271h7M245 271h3M269 271h4M112 272h3M227 272h4M234 272h7M245 272h3M269 272h4M115 273h4M224 273h3M231 273h10M269 273h4M115 274h4M224 274h3M231 274h10M269 274h4M115 275h4M224 275h3M231 275h10M269 275h4M112 276h3M119 276h7M220 276h4M227 276h14M273 276h3M112 277h3M119 277h7M220 277h4M227 277h14M273 277h3M112 278h3M119 278h7M220 278h4M227 278h14M273 278h3M112 279h3M119 279h7M220 279h4M227 279h14M273 279h3M112 280h17M217 280h3M224 280h14M273 280h3M112 281h17M217 281h3M224 281h14M273 281h3M112 282h17M217 282h3M224 282h14M273 282h3M112 283h28M210 283h28M276 283h4M112 284h28M210 284h28M276 284h4M112 285h28M210 285h28M276 285h4M112 286h28M210 286h28M276 286h4M115 287h32M168 287h14M203 287h31M276 287h4M115 288h32M168 288h14M203 288h31M276 288h4M115 289h32M168 289h14M203 289h31M276 289h4M115 290h21M150 290h46M206 290h25M276 290h4M115 291h21M150 291h46M206 291h25M276 291h4M115 292h21M150 292h46M206 292h25M276 292h4M115 293h21M150 293h46M206 293h25M276 293h4M122 294h14M154 294h38M206 294h18M276 294h4M122 295h14M154 295h38M206 295h18M276 295h4M122 296h14M154 296h38M206 296h18M276 296h4M122 297h18M161 297h21M199 297h21M122 298h18M161 298h21M199 298h21M122 299h18M161 299h21M199 299h21M122 300h18M161 300h21M199 300h21M122 301h25M196 301h17M122 302h25M196 302h17M122 303h25M196 303h17M122 304h32M185 304h28M122 305h32M185 305h28M122 306h32M185 306h28M122 307h32M185 307h28M122 308h39M185 308h21M122 309h39M185 309h21M122 310h39M185 310h21M122 311h39M178 311h21M122 312h39M178 312h21M122 313h39M178 313h21M122 314h39M178 314h21M122 315h74M122 316h74M122 317h74M133 318h56M133 319h56M133 320h56M133 321h56M136 322h49M192 322h4M136 323h49M192 323h4M136 324h49M192 324h4M143 325h35M143 326h35M143 327h35M143 328h35M154 329h17M154 330h17M154 331h17M154 336h3M154 337h3M154 338h3" />
<path stroke="#0f1213" d="M115 94h11M115 95h11M115 96h11M115 97h11M108 98h7M126 98h7M213 98h18M108 99h7M126 99h7M213 99h18M108 100h7M126 100h7M213 100h18M105 101h3M133 101h3M210 101h3M231 101h3M105 102h3M133 102h3M210 102h3M231 102h3M105 103h3M133 103h3M210 103h3M231 103h3M105 104h3M133 104h3M210 104h3M231 104h3M206 105h4M234 105h4M206 106h4M234 106h4M206 107h4M234 107h4" />
<path stroke="#8fafc4" d="M276 94h4M276 95h4M276 96h4M276 97h4M70 98h3M276 98h7M70 99h3M276 99h7M70 100h3M276 100h7M66 101h7M276 101h11M66 102h7M276 102h11M66 103h7M276 103h11M66 104h7M276 104h11M63 105h10M276 105h14M63 106h10M276 106h14M63 107h10M276 107h14M59 108h14M276 108h14M59 109h14M276 109h14M59 110h14M276 110h14M59 111h14M276 111h14M56 112h17M280 112h14M56 113h17M280 113h14M56 114h17M280 114h14M56 115h14M280 115h17M56 116h14M280 116h17M56 117h14M280 117h17M56 118h14M280 118h17M52 119h18M283 119h14M52 120h18M283 120h14M52 121h18M283 121h14M49 122h17M287 122h14M49 123h17M287 123h14M49 124h17M287 124h14M49 125h17M287 125h14M49 126h14M287 126h14M49 127h14M287 127h14M49 128h14M287 128h14M45 129h18M290 129h14M45 130h18M290 130h14M45 131h18M290 131h14M45 132h18M290 132h14M45 133h14M290 133h14M45 134h14M290 134h14M45 135h14M290 135h14M42 136h17M294 136h14M42 137h17M294 137h14M42 138h17M294 138h14M42 139h17M294 139h14M42 140h14M294 140h14M42 141h14M294 141h14M42 142h14M294 142h14M38 143h18M297 143h14M38 144h18M297 144h14M38 145h18M297 145h14M38 146h18M297 146h14M38 147h14M297 147h14M38 148h14M297 148h14M38 149h14M297 149h14M35 150h17M301 150h10M35 151h17M301 151h10M35 152h17M301 152h10M35 153h17M301 153h10M35 154h17M301 154h14M35 155h17M301 155h14M35 156h17M301 156h14M35 157h14M304 157h11M35 158h14M304 158h11M35 159h14M304 159h11M35 160h14M304 160h11M31 161h18M304 161h11M31 162h18M304 162h11M31 163h18M304 163h11M31 164h18M304 164h11M31 165h18M304 165h11M31 166h18M304 166h11M31 167h18M304 167h11M31 168h18M308 168h7M31 169h18M308 169h7M31 170h18M308 170h7M31 171h14M308 171h10M31 172h14M308 172h10M31 173h14M308 173h10M31 174h14M308 174h10M31 175h14M308 175h10M31 176h14M308 176h10M31 177h14M308 177h10M28 178h17M308 178h10M28 179h17M308 179h10M28 180h17M308 180h10M28 181h17M308 181h10M28 182h17M311 182h7M28 183h17M311 183h7M28 184h17M311 184h7M28 185h17M311 185h7M28 186h17M311 186h7M28 187h17M311 187h7M28 188h17M311 188h7M28 189h17M311 189h7M28 190h17M311 190h7M28 191h17M311 191h7M28 192h17M311 192h7M28 193h17M311 193h7M28 194h17M311 194h7M28 195h17M311 195h7M28 196h17M311 196h7M28 197h17M311 197h7M28 198h17M311 198h7M28 199h17M311 199h7M28 200h17M311 200h7M28 201h17M311 201h7M28 202h17M311 202h7M28 203h17M311 203h7M28 204h17M311 204h7M28 205h17M311 205h7M28 206h17M311 206h7M28 207h17M311 207h7M28 208h17M311 208h7M28 209h17M311 209h7M28 210h17M311 210h7M28 211h17M311 211h7M28 212h17M311 212h7M28 213h17M311 213h4M28 214h17M311 214h4M28 215h17M311 215h4M28 216h17M311 216h4M28 217h17M311 217h4M28 218h17M311 218h4M28 219h17M311 219h4M31 220h14M311 220h4M31 221h14M311 221h4M31 222h14M311 222h4M31 223h14M311 223h4M31 224h14M308 224h7M31 225h14M308 225h7M31 226h14M308 226h7M31 227h14M308 227h7M31 228h14M308 228h7M31 229h14M308 229h7M31 230h14M308 230h7M31 231h18M308 231h3M31 232h18M308 232h3M31 233h18M308 233h3M31 234h18M308 234h3M31 235h18M308 235h3M31 236h18M308 236h3M31 237h18M308 237h3M35 238h14M304 238h7M35 239h14M304 239h7M35 240h14M304 240h7M35 241h14M304 241h4M35 242h14M304 242h4M35 243h14M304 243h4M35 244h14M304 244h4M35 245h17M304 245h4M35 246h17M304 246h4M35 247h17M304 247h4M38 248h14M301 248h3M38 249h14M301 249h3M38 250h14M301 250h3M38 251h14M301 251h3M38 252h14M301 252h3M38 253h14M301 253h3M38 254h14M301 254h3M42 255h14M297 255h4M42 256h14M297 256h4M42 257h14M297 257h4M42 258h14M297 258h4M42 259h14M297 259h4M42 260h14M297 260h4M42 261h14M297 261h4M45 262h11M294 262h3M45 263h11M294 263h3M45 264h11M294 264h3M45 265h11M294 265h3M45 266h11M294 266h3M45 267h11M294 267h3M45 268h11M294 268h3M49 269h7M290 269h4M49 270h7M290 270h4M49 271h7M290 271h4M49 272h7M290 272h4M49 273h3M287 273h3M49 274h3M287 274h3M49 275h3M287 275h3M287 276h3M287 277h3M287 278h3M287 279h3M283 280h4M283 281h4M283 282h4" />
<path stroke="#4a1b15" d="M77 98h3M77 99h3M77 100h3" />
<path stroke="#ececec" d="M115 98h11M115 99h11M115 100h11M108 101h4M126 101h7M213 101h18M108 102h4M126 102h7M213 102h18M108 103h4M126 103h7M213 103h18M108 104h4M126 104h7M213 104h18M105 105h3M129 105h4M210 105h7M231 105h3M105 106h3M129 106h4M210 106h7M231 106h3M105 107h3M129 107h4M210 107h7M231 107h3M210 108h3M234 108h4M210 109h3M234 109h4M210 110h3M234 110h4M210 111h3M234 111h4" />
<path stroke="#46575d" d="M269 98h4M269 99h4M269 100h4" />
<path stroke="#000101" d="M273 98h3M273 99h3M273 100h3" />
<path stroke="#aeaeae" d="M112 101h3M112 102h3M112 103h3M112 104h3M227 108h4M227 109h4M227 110h4M227 111h4" />
<path stroke="#838484" d="M115 101h4M115 102h4M115 103h4M115 104h4M227 112h4M227 113h4M227 114h4" />
<path stroke="#3f3b3a" d="M101 105h4M133 105h3M101 106h4M133 106h3M101 107h4M133 107h3M206 108h4M238 108h3M206 109h4M238 109h3M206 110h4M238 110h3M206 111h4M238 111h3" />
<path stroke="#ffffff" d="M108 105h4M126 105h3M108 106h4M126 106h3M108 107h4M126 107h3M105 108h7M126 108h7M213 108h4M231 108h3M105 109h7M126 109h7M213 109h4M231 109h3M105 110h7M126 110h7M213 110h4M231 110h3M105 111h7M126 111h7M213 111h4M231 111h3M112 112h14M210 112h7M231 112h7M112 113h14M210 113h7M231 113h7M112 114h14M210 114h7M231 114h7M213 115h21M213 116h21M213 117h21M213 118h21" />
<path stroke="#727272" d="M115 105h4M115 106h4M115 107h4M224 112h3M224 113h3M224 114h3" />
<path stroke="#b86f3d" d="M133 108h3M133 109h3M133 110h3M133 111h3M206 112h4M206 113h4M206 114h4M210 115h3M210 116h3M210 117h3M210 118h3" />
<path stroke="#8f573c" d="M182 108h3M182 109h3M182 110h3M182 111h3M182 112h3M182 113h3M182 114h3M182 115h3M182 116h3M182 117h3M182 118h3" />
<path stroke="#b4d2e5" d="M273 108h3M273 109h3M273 110h3M273 111h3M273 112h7M273 113h7M273 114h7M70 115h3M273 115h7M70 116h3M273 116h7M70 117h3M273 117h7M70 118h3M273 118h7M70 119h3M273 119h10M70 120h3M273 120h10M70 121h3M273 121h10M66 122h7M273 122h14M66 123h7M273 123h14M66 124h7M273 124h14M66 125h7M273 125h14M63 126h10M276 126h11M63 127h10M276 127h11M63 128h10M276 128h11M63 129h10M280 129h10M63 130h10M280 130h10M63 131h10M280 131h10M63 132h10M280 132h10M59 133h14M280 133h10M59 134h14M280 134h10M59 135h14M280 135h10M59 136h11M283 136h11M59 137h11M283 137h11M59 138h11M283 138h11M59 139h11M283 139h11M56 140h10M283 140h11M56 141h10M283 141h11M56 142h10M283 142h11M56 143h10M287 143h10M56 144h10M287 144h10M56 145h10M287 145h10M56 146h10M287 146h10M52 147h11M287 147h10M52 148h11M287 148h10M52 149h11M287 149h10M52 150h11M287 150h14M52 151h11M287 151h14M52 152h11M287 152h14M52 153h11M287 153h14M52 154h7M290 154h11M52 155h7M290 155h11M52 156h7M290 156h11M49 157h10M290 157h14M49 158h10M290 158h14M49 159h10M290 159h14M49 160h10M290 160h14M49 161h10M290 161h14M49 162h10M290 162h14M49 163h10M290 163h14M49 164h7M294 164h10M49 165h7M294 165h10M49 166h7M294 166h10M49 167h7M294 167h10M49 168h7M294 168h14M49 169h7M294 169h14M49 170h7M294 170h14M45 171h11M294 171h14M45 172h11M294 172h14M45 173h11M294 173h14M45 174h11M294 174h14M45 175h11M297 175h11M45 176h11M297 176h11M45 177h11M297 177h11M45 178h7M297 178h11M45 179h7M297 179h11M45 180h7M297 180h11M45 181h7M297 181h11M45 182h7M297 182h14M45 183h7M297 183h14M45 184h7M297 184h14M45 185h7M297 185h14M45 186h7M297 186h14M45 187h7M297 187h14M45 188h7M297 188h14M45 189h7M301 189h10M45 190h7M301 190h10M45 191h7M301 191h10M45 192h7M301 192h10M45 193h7M301 193h10M45 194h7M301 194h10M45 195h7M301 195h10M45 196h7M301 196h10M45 197h7M301 197h10M45 198h7M301 198h10M45 199h7M301 199h10M45 200h7M301 200h10M45 201h7M301 201h10M45 202h7M301 202h10M45 203h7M301 203h10M45 204h7M301 204h10M45 205h7M301 205h10M45 206h7M301 206h10M45 207h7M301 207h10M45 208h7M301 208h10M45 209h7M301 209h10M45 210h7M301 210h10M45 211h7M301 211h10M45 212h7M301 212h10M45 213h11M301 213h10M45 214h11M301 214h10M45 215h11M301 215h10M45 216h11M301 216h10M45 217h11M301 217h10M45 218h11M301 218h10M45 219h11M301 219h10M45 220h11M301 220h10M45 221h11M301 221h10M45 222h11M301 222h10M45 223h11M301 223h10M45 224h11M297 224h11M45 225h11M297 225h11M45 226h11M297 226h11M45 227h14M297 227h11M45 228h14M297 228h11M45 229h14M297 229h11M45 230h14M297 230h11M49 231h10M297 231h11M49 232h10M297 232h11M49 233h10M297 233h11M49 234h10M297 234h11M49 235h10M297 235h11M49 236h10M297 236h11M49 237h10M297 237h11M49 238h14M294 238h10M49 239h14M294 239h10M49 240h14M294 240h10M49 241h14M294 241h10M49 242h14M294 242h10M49 243h14M294 243h10M49 244h14M294 244h10M52 245h11M294 245h10M52 246h11M294 246h10M52 247h11M294 247h10M52 248h11M290 248h11M52 249h11M290 249h11M52 250h11M290 250h11M52 251h11M290 251h11M52 252h7M290 252h11M52 253h7M290 253h11M52 254h7M290 254h11M56 255h3M287 255h10M56 256h3M287 256h10M56 257h3M287 257h10M56 258h3M287 258h10M56 259h3M287 259h10M56 260h3M287 260h10M56 261h3M287 261h10M283 262h11M283 263h11M283 264h11M283 265h11M280 266h14M280 267h14M280 268h14M280 269h10M280 270h10M280 271h10M280 272h10M276 273h11M276 274h11M276 275h11M280 276h7M280 277h7M280 278h7M280 279h7M280 280h3M280 281h3M280 282h3" />
<path stroke="#963127" d="M101 112h4M101 113h4M101 114h4M105 115h3M129 115h4M105 116h3M129 116h4M105 117h3M129 117h4M105 118h3M129 118h4M108 119h4M115 119h18M231 119h3M108 120h4M115 120h18M231 120h3M108 121h4M115 121h18M231 121h3M115 122h7M129 122h7M213 122h18M115 123h7M129 123h7M213 123h18M115 124h7M129 124h7M213 124h18M115 125h7M129 125h7M213 125h18M122 126h7M133 126h3M210 126h10M224 126h3M122 127h7M133 127h3M210 127h10M224 127h3M122 128h7M133 128h3M210 128h10M224 128h3M126 129h3M133 129h7M210 129h7M220 129h4M126 130h3M133 130h7M210 130h7M220 130h4M126 131h3M133 131h7M210 131h7M220 131h4M126 132h3M133 132h7M210 132h7M220 132h4M129 133h7M206 133h7M217 133h3M129 134h7M206 134h7M217 134h3M129 135h7M206 135h7M217 135h3M133 136h3M206 136h7M217 136h3M133 137h3M206 137h7M217 137h3M133 138h3M206 138h7M217 138h3M133 139h3M206 139h7M217 139h3M129 140h4M206 140h4M213 140h4M129 141h4M206 141h4M213 141h4M129 142h4M206 142h4M213 142h4M206 143h7M206 144h7M206 145h7M206 146h7M129 147h4M129 148h4M129 149h4M210 150h3M210 151h3M210 152h3M210 153h3M269 192h4M269 193h4M269 194h4M269 195h4M269 196h4M269 197h4M269 198h4M269 199h4M269 200h4M269 201h4M269 202h4M269 203h4M269 204h4M269 205h4M269 206h4M269 207h4M269 208h4M269 209h4M227 210h4M266 210h3M227 211h4M266 211h3M227 212h4M266 212h3M266 213h3M266 214h3M266 215h3M266 216h3M231 217h3M266 217h3M231 218h3M266 218h3M231 219h3M266 219h3M231 220h7M262 220h7M231 221h7M262 221h7M231 222h7M262 222h7M231 223h7M262 223h7M234 224h4M262 224h4M234 225h4M262 225h4M234 226h4M262 226h4M234 227h4M262 227h4M234 228h4M262 228h4M234 229h4M262 229h4M234 230h4M262 230h4M234 231h4M259 231h7M234 232h4M259 232h7M234 233h4M259 233h7M234 234h4M259 234h7M234 235h4M259 235h7M234 236h4M259 236h7M234 237h4M259 237h7M234 238h4M259 238h7M234 239h4M259 239h7M234 240h4M259 240h7M234 241h4M259 241h3M234 242h4M259 242h3M234 243h4M259 243h3M234 244h4M259 244h3M234 245h4M255 245h7M234 246h4M255 246h7M234 247h4M255 247h7M231 248h7M255 248h4M231 249h7M255 249h4M231 250h7M255 250h4M231 251h7M255 251h4M231 252h3M252 252h3M231 253h3M252 253h3M231 254h3M252 254h3M112 255h3M227 255h7M248 255h7M112 256h3M227 256h7M248 256h7M112 257h3M227 257h7M248 257h7M112 258h3M227 258h7M248 258h7M112 259h3M227 259h4M248 259h4M112 260h3M227 260h4M248 260h4M112 261h3M227 261h4M248 261h4M112 262h3M224 262h7M245 262h7M112 263h3M224 263h7M245 263h7M112 264h3M224 264h7M245 264h7M112 265h3M224 265h7M245 265h7M115 266h4M224 266h3M245 266h3M115 267h4M224 267h3M245 267h3M115 268h4M224 268h3M245 268h3M115 269h7M220 269h7M241 269h4M115 270h7M220 270h7M241 270h4M115 271h7M220 271h7M241 271h4M115 272h7M220 272h7M241 272h4M119 273h7M217 273h7M241 273h4M119 274h7M217 274h7M241 274h4M119 275h7M217 275h7M241 275h4M126 276h3M213 276h7M126 277h3M213 277h7M126 278h3M213 278h7M126 279h3M213 279h7M129 280h7M171 280h7M210 280h7M129 281h7M171 281h7M210 281h7M129 282h7M171 282h7M210 282h7M140 283h10M164 283h21M199 283h11M140 284h10M164 284h21M199 284h11M140 285h10M164 285h21M199 285h11M140 286h10M164 286h21M199 286h11M147 287h21M182 287h21M147 288h21M182 288h21M147 289h21M182 289h21M136 290h4M136 291h4M136 292h4M136 293h4M136 294h11M199 294h7M224 294h7M136 295h11M199 295h7M224 295h7M136 296h11M199 296h7M224 296h7M140 297h10M196 297h3M220 297h7M140 298h10M196 298h3M220 298h7M140 299h10M196 299h3M220 299h7M140 300h10M196 300h3M220 300h7M147 301h10M185 301h11M213 301h7M147 302h10M185 302h11M213 302h7M147 303h10M185 303h11M213 303h7M154 304h31M213 304h4M154 305h31M213 305h4M154 306h31M213 306h4M154 307h31M213 307h4M161 308h14M206 308h7M161 309h14M206 309h7M161 310h14M206 310h7M199 311h7M199 312h7M199 313h7M199 314h7M196 315h7M196 316h7M196 317h7M126 318h7M189 318h10M126 319h7M189 319h10M126 320h7M189 320h10M126 321h7M189 321h10M129 322h7M185 322h7M129 323h7M185 323h7M129 324h7M185 324h7M133 325h10M178 325h14M133 326h10M178 326h14M133 327h10M178 327h14M133 328h10M178 328h14M140 329h14M171 329h18M140 330h14M171 330h18M140 331h14M171 331h18M147 332h35M147 333h35M147 334h35M147 335h35M157 336h18M157 337h18M157 338h18" />
<path stroke="#742118" d="M105 112h7M126 112h10M105 113h7M126 113h10M105 114h7M126 114h10M108 115h21M133 115h3M108 116h21M133 116h3M108 117h21M133 117h3M108 118h21M133 118h3M133 119h3M213 119h18M133 120h3M213 120h18M133 121h3M213 121h18M136 122h4M210 122h3M136 123h4M210 123h3M136 124h4M210 124h3M136 125h4M210 125h3M136 126h4M206 126h4M136 127h4M206 127h4M136 128h4M206 128h4M206 129h4M206 130h4M206 131h4M206 132h4M234 259h4M234 260h4M234 261h4M234 262h4M234 263h4M234 264h4M234 265h4M105 266h3M231 266h3M105 267h3M231 267h3M105 268h3M231 268h3M108 269h4M231 269h3M108 270h4M231 270h3M108 271h4M231 271h3M108 272h4M231 272h3M112 273h3M227 273h4M112 274h3M227 274h4M112 275h3M227 275h4M115 276h4M224 276h3M115 277h4M224 277h3M115 278h4M224 278h3M115 279h4M224 279h3M220 280h4M220 281h4M220 282h4M140 290h10M196 290h10M140 291h10M196 291h10M140 292h10M196 292h10M140 293h10M196 293h10M147 294h7M192 294h7M147 295h7M192 295h7M147 296h7M192 296h7M150 297h11M182 297h14M150 298h11M182 298h14M150 299h11M182 299h14M150 300h11M182 300h14M157 301h28M157 302h28M157 303h28M175 308h10M175 309h10M175 310h10M161 311h17M161 312h17M161 313h17M161 314h17" />
<path stroke="#8d472d" d="M164 112h4M164 113h4M164 114h4M164 115h4M164 116h4M164 117h4M164 118h4M164 119h4M182 119h3M164 120h4M182 120h3M164 121h4M182 121h3M164 122h4M182 122h3M164 123h4M182 123h3M164 124h4M182 124h3M164 125h4M182 125h3M164 126h4M182 126h3M164 127h4M182 127h3M164 128h4M182 128h3M182 129h3M182 130h3M182 131h3M182 132h3M182 133h3M182 134h3M182 135h3M182 136h3M182 137h3M182 138h3M182 139h3M164 140h4M182 140h3M164 141h4M182 141h3M164 142h4M182 142h3" />
<path stroke="#ffd96b" d="M77 126h3M77 127h3M77 128h3M77 129h3M77 130h3M77 131h3M77 132h3M77 133h3M77 134h3M77 135h3M77 136h3M77 137h3M77 138h3M77 139h3M77 140h3M77 141h3M77 142h3M77 143h3M77 144h3M77 145h3M77 146h3M77 147h3M77 148h3M77 149h3M77 150h3M77 151h3M77 152h3M77 153h3M77 154h3M77 155h3M77 156h3M77 157h3M77 158h3M77 159h3M77 160h3M77 161h3M77 162h3M77 163h3M77 164h3M77 165h3M77 166h3M77 167h3M77 168h3M77 169h3M77 170h3M77 175h3M77 176h3M77 177h3M77 178h3M77 179h3M77 180h3M77 181h3M77 182h3M77 183h3M77 184h3M77 185h3M77 186h3M77 187h3M77 188h3M77 189h3M77 190h3M77 191h3M73 199h4M73 200h4M73 201h4M73 202h4M73 203h4M73 204h4M73 205h4M73 206h4M73 207h4M73 208h4M73 209h4M70 231h3M70 232h3M70 233h3M70 234h3M70 235h3M70 236h3M70 237h3M70 238h3M70 239h3M70 240h3M66 241h4M66 242h4M66 243h4M66 244h4M66 245h4M66 246h4M66 247h4M66 248h4M66 249h4M66 250h4M66 251h4M66 252h4M66 253h4M66 254h4M63 255h3M63 256h3M63 257h3M63 258h3M63 259h3M63 260h3M63 261h3M59 269h4M59 270h4M59 271h4M59 272h4M59 273h4M59 274h4M59 275h4M56 276h3M56 277h3M56 278h3M56 279h3M56 280h3M56 281h3M56 282h3M56 283h3M56 284h3M56 285h3M56 286h3M52 287h4M52 288h4M52 289h4M52 290h4M52 291h4M52 292h4M52 293h4" />
<path stroke="#d4e9f6" d="M273 126h3M273 127h3M273 128h3M273 129h7M273 130h7M273 131h7M273 132h7M273 133h7M273 134h7M273 135h7M70 136h3M273 136h10M70 137h3M273 137h10M70 138h3M273 138h10M70 139h3M273 139h10M66 140h7M273 140h10M66 141h7M273 141h10M66 142h7M273 142h10M66 143h7M273 143h14M66 144h7M273 144h14M66 145h7M273 145h14M66 146h7M273 146h14M63 147h10M276 147h11M63 148h10M276 148h11M63 149h10M276 149h11M63 150h10M276 150h11M63 151h10M276 151h11M63 152h10M276 152h11M63 153h10M276 153h11M59 154h14M276 154h14M59 155h14M276 155h14M59 156h14M276 156h14M59 157h14M276 157h14M59 158h14M276 158h14M59 159h14M276 159h14M59 160h14M276 160h14M59 161h14M276 161h14M59 162h14M276 162h14M59 163h14M276 163h14M56 164h17M276 164h18M56 165h17M276 165h18M56 166h17M276 166h18M56 167h17M276 167h18M56 168h17M276 168h18M56 169h17M276 169h18M56 170h17M276 170h18M56 171h17M276 171h18M56 172h17M276 172h18M56 173h17M276 173h18M56 174h17M276 174h18M56 175h17M276 175h21M56 176h17M276 176h21M56 177h17M276 177h21M52 178h21M276 178h21M52 179h21M276 179h21M52 180h21M276 180h21M52 181h21M276 181h21M52 182h21M276 182h21M52 183h21M276 183h21M52 184h21M276 184h21M52 185h21M276 185h21M52 186h21M276 186h21M52 187h21M276 187h21M52 188h21M276 188h21M52 189h21M276 189h25M52 190h21M276 190h25M52 191h21M276 191h25M52 192h21M276 192h25M52 193h21M276 193h25M52 194h21M276 194h25M52 195h21M276 195h25M52 196h18M276 196h25M52 197h18M276 197h25M52 198h18M276 198h25M52 199h18M276 199h25M52 200h18M276 200h25M52 201h18M276 201h25M52 202h18M276 202h25M52 203h18M276 203h25M52 204h18M276 204h25M52 205h18M276 205h25M52 206h18M276 206h25M52 207h18M276 207h25M52 208h18M276 208h25M52 209h18M276 209h25M52 210h18M273 210h28M52 211h18M273 211h28M52 212h18M273 212h28M56 213h14M273 213h28M56 214h14M273 214h28M56 215h14M273 215h28M56 216h14M273 216h28M56 217h14M273 217h28M56 218h14M273 218h28M56 219h14M273 219h28M56 220h14M273 220h28M56 221h14M273 221h28M56 222h14M273 222h28M56 223h14M273 223h28M56 224h14M273 224h24M56 225h14M273 225h24M56 226h14M273 226h24M59 227h11M269 227h28M59 228h11M269 228h28M59 229h11M269 229h28M59 230h11M269 230h28M59 231h7M269 231h28M59 232h7M269 232h28M59 233h7M269 233h28M59 234h7M269 234h28M59 235h7M269 235h28M59 236h7M269 236h28M59 237h7M269 237h28M269 238h25M269 239h25M269 240h25M269 241h25M269 242h25M269 243h25M269 244h25M273 245h21M273 246h21M273 247h21M273 248h17M273 249h17M273 250h17M273 251h17M273 252h17M273 253h17M273 254h17M273 255h14M273 256h14M273 257h14M273 258h14M273 259h14M273 260h14M273 261h14M276 262h7M276 263h7M276 264h7M276 265h7M276 266h4M276 267h4M276 268h4M276 269h4M276 270h4M276 271h4M276 272h4" />
<path stroke="#9c482e" d="M164 129h4M164 130h4M164 131h4M164 132h4M164 133h4M164 134h4M164 135h4M164 136h4M164 137h4M164 138h4M164 139h4" />
<path stroke="#78462b" d="M164 143h4M182 143h3M164 144h4M182 144h3M164 145h4M182 145h3M164 146h4M182 146h3M164 147h4M182 147h3M164 148h4M182 148h3M164 149h4M182 149h3M168 150h3M178 150h4M168 151h3M178 151h4M168 152h3M178 152h4M168 153h3M178 153h4" />
<path stroke="#db7543" d="M164 150h4M182 150h3M164 151h4M182 151h3M164 152h4M182 152h3M164 153h4M182 153h3" />
<path stroke="#e58449" d="M80 154h4M80 155h4M80 156h4M80 157h4M80 158h4M80 159h4M80 160h4" />
<path stroke="#da6237" d="M168 154h3M178 154h4M168 155h3M178 155h4M168 156h3M178 156h4M168 157h3M178 157h4M168 158h3M178 158h4M168 159h3M178 159h4M168 160h3M178 160h4" />
<path stroke="#77251a" d="M171 154h7M171 155h7M171 156h7M171 157h7M171 158h7M171 159h7M171 160h7M171 161h4M171 162h4M171 163h4" />
<path stroke="#e68649" d="M80 161h4M80 162h4M80 163h4M80 164h4M80 165h4M80 166h4M80 167h4M80 168h4M80 169h4M80 170h4M80 171h4M80 172h4M80 173h4M80 174h4M80 175h4M80 176h4M80 177h4" />
<path stroke="#ac4a2f" d="M175 161h3M175 162h3M175 163h3M171 164h7M171 165h7M171 166h7M171 167h7M171 168h7M171 169h7M171 170h7M171 171h7M171 172h7M171 173h7M171 174h7M171 175h7M171 176h7M171 177h7M171 178h7M171 179h7M171 180h7M171 181h7M171 182h7M171 183h7M171 184h7M171 185h7M171 186h7M171 187h7M171 188h7M171 189h7M171 190h7M171 191h7M171 192h7M171 193h7M171 194h7M171 195h7M171 196h4M171 197h4M171 198h4M171 199h4M171 200h4M171 201h4M171 202h4M171 203h4M171 204h4M171 205h4" />
<path stroke="#ffbf5b" d="M77 171h3M77 172h3M77 173h3M77 174h3M77 192h3M77 193h3M77 194h3M77 195h3M73 196h7M73 197h7M73 198h7M77 199h3M77 200h3M77 201h3M77 202h3M73 210h4M73 211h4M73 212h4M73 213h4M73 214h4M73 215h4M73 216h4M73 217h4M73 218h4M73 219h4M73 220h4M73 221h4M73 222h4M73 223h4M73 224h4M73 225h4M73 226h4M73 227h4M73 228h4M73 229h4M73 230h4M70 241h3M70 242h3M70 243h3M70 244h3M70 245h3M70 246h3M70 247h3M70 248h3M70 249h3M70 250h3M70 251h3M66 255h4M66 256h4M66 257h4M66 258h4M66 259h4M66 260h4M66 261h4M63 262h3M63 263h3M63 264h3M63 265h3M59 266h7M59 267h7M59 268h7M63 269h3M63 270h3M63 271h3M63 272h3M59 276h4M59 277h4M59 278h4M59 279h4M59 280h4M59 281h4M59 282h4M59 283h4M59 284h4M59 285h4M59 286h4M56 287h7M56 288h7M56 289h7M56 290h3M56 291h3M56 292h3M56 293h3M56 294h3M56 295h3M56 296h3" />
<path stroke="#bc5c37" d="M175 196h3M175 197h3M175 198h3M175 199h3M175 200h3M175 201h3M175 202h3M175 203h3M175 204h3M175 205h3M171 206h7M171 207h7M171 208h7M171 209h7M171 210h7M171 211h7M171 212h7M171 213h7M171 214h7M171 215h7M171 216h7M171 217h7M171 218h7M171 219h7M171 220h7M171 221h7M171 222h7M171 223h7M171 224h7M171 225h7M171 226h7M171 227h7M171 228h7M171 229h7M171 230h7M175 231h3M175 232h3M175 233h3M175 234h3M175 235h3M175 236h3M175 237h3" />
<path stroke="#e98c4b" d="M213 217h4M213 218h4M213 219h4" />
<path stroke="#9b3f29" d="M171 231h4M171 232h4M171 233h4M171 234h4M171 235h4M171 236h4M171 237h4M171 238h7M171 239h7M171 240h7M171 241h7M171 242h7M171 243h7M171 244h7M171 245h7M171 246h7M171 247h7M171 248h7M171 249h7M171 250h7M171 251h7M171 252h7M171 253h7M171 254h7M171 255h7M171 256h7M171 257h7M171 258h7M171 259h7M171 260h7M171 261h7M175 262h3M175 263h3M175 264h3M175 265h3" />
<path stroke="#d5e8f2" d="M63 238h3M63 239h3M63 240h3" />
<path stroke="#d56c3f" d="M105 245h3M105 246h3M105 247h3M105 248h3M105 249h3M105 250h3M105 251h3M101 252h7M101 253h7M101 254h7M101 255h7M101 256h7M101 257h7M101 258h7M98 259h7M98 260h7M98 261h7M94 262h11M94 263h11M94 264h11M94 265h11M94 266h11M94 267h11M94 268h11M94 269h11M259 269h7M94 270h11M259 270h7M94 271h11M259 271h7M94 272h11M259 272h7M91 273h10M259 273h7M91 274h10M259 274h7M91 275h10M259 275h7M91 276h10M255 276h11M91 277h10M255 277h11M91 278h10M255 278h11M91 279h10M255 279h11M94 280h11M255 280h14M94 281h11M255 281h14M94 282h11M255 282h14M94 283h14M252 283h3M262 283h7M94 284h14M252 284h3M262 284h7M94 285h14M252 285h3M262 285h7M94 286h14M252 286h3M262 286h7M94 287h18M248 287h4M262 287h11M94 288h18M248 288h4M262 288h11M94 289h18M248 289h4M262 289h11M98 290h17M245 290h3M262 290h11M98 291h17M245 291h3M262 291h11M98 292h17M245 292h3M262 292h11M98 293h17M245 293h3M262 293h11M101 294h14M241 294h4M266 294h7M101 295h14M241 295h4M266 295h7M101 296h14M241 296h4M266 296h7M108 297h11M238 297h7M266 297h7M108 298h11M238 298h7M266 298h7M108 299h11M238 299h7M266 299h7M108 300h11M238 300h7M266 300h7M108 301h11M234 301h11M266 301h7M108 302h11M234 302h11M266 302h7M108 303h11M234 303h11M266 303h7M108 304h11M231 304h10M269 304h7M108 305h11M231 305h10M269 305h7M108 306h11M231 306h10M269 306h7M108 307h11M231 307h10M269 307h7M108 308h11M231 308h7M269 308h7M108 309h11M231 309h7M269 309h7M108 310h11M231 310h7M269 310h7M108 311h11M227 311h7M269 311h4M108 312h11M227 312h7M269 312h4M108 313h11M227 313h7M269 313h4M108 314h11M227 314h7M269 314h4M112 315h3M220 315h11M112 316h3M220 316h11M112 317h3M220 317h11M217 318h10M217 319h10M217 320h10M217 321h10M213 322h11M213 323h11M213 324h11M210 325h10M210 326h10M210 327h10M210 328h10M206 329h11M206 330h11M206 331h11M203 332h7M203 333h7M203 334h7M203 335h7M196 336h10M196 337h10M196 338h10M192 339h11M192 340h11M192 341h11M192 342h11M185 343h11M185 344h11M185 345h11" />
<path stroke="#6a1b14" d="M171 262h4M171 263h4M171 264h4M171 265h4M171 266h7M171 267h7M171 268h7M171 269h7M171 270h7M171 271h7M171 272h7M171 273h7M171 274h7M171 275h7" />
<path stroke="#7e271d" d="M129 273h7M210 273h3M129 274h7M210 274h3M129 275h7M210 275h3M136 276h11M164 276h7M178 276h7M199 276h11M136 277h11M164 277h7M178 277h7M199 277h11M136 278h11M164 278h7M178 278h7M199 278h11M136 279h11M164 279h7M178 279h7M199 279h11M150 280h14M185 280h14M150 281h14M185 281h14M150 282h14M185 282h14" />
<path stroke="#d87242" d="M255 283h4M255 284h4M255 285h4M255 286h4M252 287h3M252 288h3M252 289h3M248 290h4M248 291h4M248 292h4M248 293h4M245 294h3M245 295h3M245 296h3" />
<path stroke="#dc7643" d="M259 283h3M259 284h3M259 285h3M259 286h3M255 287h7M255 288h7M255 289h7M252 290h10M252 291h10M252 292h10M252 293h10M248 294h18M248 295h18M248 296h18M105 297h3M255 297h11M105 298h3M255 298h11M105 299h3M255 299h11M105 300h3M255 300h11M105 301h3M245 301h3M252 301h14M105 302h3M245 302h3M252 302h14M105 303h3M245 303h3M252 303h14M241 304h4M252 304h3M259 304h10M241 305h4M252 305h3M259 305h10M241 306h4M252 306h3M259 306h10M241 307h4M252 307h3M259 307h10M238 308h17M262 308h7M238 309h17M262 309h7M238 310h17M262 310h7M234 311h14M259 311h10M234 312h14M259 312h10M234 313h14M259 313h10M234 314h14M259 314h10M231 315h14M259 315h10M231 316h14M259 316h10M231 317h14M259 317h10M227 318h14M255 318h7M227 319h14M255 319h7M227 320h14M255 320h7M227 321h14M255 321h7M119 322h3M224 322h10M252 322h7M119 323h3M224 323h10M252 323h7M119 324h3M224 324h10M252 324h7M122 325h4M220 325h11M248 325h4M122 326h4M220 326h11M248 326h4M122 327h4M220 327h11M248 327h4M122 328h4M220 328h11M248 328h4M217 329h7M245 329h3M217 330h7M245 330h3M217 331h7M245 331h3M129 332h4M210 332h10M238 332h3M129 333h4M210 333h10M238 333h3M129 334h4M210 334h10M238 334h3M129 335h4M210 335h10M238 335h3M129 336h11M206 336h11M231 336h3M129 337h11M206 337h11M231 337h3M129 338h11M206 338h11M231 338h3M126 339h24M203 339h10M220 339h4M126 340h24M203 340h10M220 340h4M126 341h24M203 341h10M220 341h4M126 342h24M203 342h10M220 342h4M133 343h31M196 343h14M133 344h31M196 344h14M133 345h31M196 345h14" />
<path stroke="#df7b45" d="M98 294h3M98 295h3M98 296h3M105 304h3M105 305h3M105 306h3M105 307h3" />
<path stroke="#da7442" d="M245 297h3M245 298h3M245 299h3M245 300h3" />
<path stroke="#d97141" d="M248 297h4M248 298h4M248 299h4M248 300h4M248 301h4M248 302h4M248 303h4M245 304h7M245 305h7M245 306h7M245 307h7" />
<path stroke="#d87141" d="M252 297h3M252 298h3M252 299h3M252 300h3M112 318h7M112 319h7M112 320h7M112 321h7M115 322h4M115 323h4M115 324h4M115 325h7M115 326h7M115 327h7M115 328h7M119 329h10M119 330h10M119 331h10M122 332h7M122 333h7M122 334h7M122 335h7M126 336h3M126 337h3M126 338h3" />
<path stroke="#d97342" d="M119 332h3M119 333h3M119 334h3M119 335h3M122 336h4M122 337h4M122 338h4" />
<path stroke="#cf633c" d="M150 339h7M150 340h7M150 341h7M150 342h7M164 343h7M164 344h7M164 345h7" />
</svg>